<svg width="71" height="81" viewBox="0 0 71 81" fill="none" xmlns="http://www.w3.org/2000/svg">
<g clip-path="url(#clip0_1084_36)">
<path d="M52.6273 9.38159L67.4834 0.260625C69.1058 -0.570892 70.9983 0.666953 70.9983 2.91805V58.4531C70.9983 59.492 69.899 60.6407 68.5553 60.6407H61.7222C61.3974 60.6407 61.0828 60.5687 60.7853 60.4419C60.4879 60.3064 60.2178 60.1264 59.9921 59.8812C59.7664 59.6463 59.5869 59.3652 59.469 59.0583C59.3425 58.7514 59.2792 58.4256 59.2895 58.0913V18.0345L54.7198 20.8462C53.0974 21.6692 51.2579 20.3936 51.2579 18.5043V11.679C51.2579 10.7034 51.7896 9.80678 52.629 9.3833L52.6273 9.38159ZM22.6261 49.8207C16.5589 49.8207 11.4575 44.7853 11.4575 37.444C11.4575 30.1026 16.5606 25.0673 22.6261 25.0673C28.6917 25.0673 33.6956 29.9946 33.6956 37.444C33.6956 44.8934 28.6917 49.8207 22.6261 49.8207ZM36.3915 14.2095C34.9487 14.2095 34.0836 15.1131 34.0836 16.6235V19.2363C31.4782 15.9189 26.6744 13.3969 21.8602 13.3969C10.1138 13.402 0 23.8654 0 37.5434C0 51.2214 9.52912 60.6785 21.5628 60.6785C23.8262 60.6973 25.9974 60.2361 28.0711 59.3034C30.1533 58.3811 31.9569 57.0609 33.4972 55.3533C33.4066 64.9098 28.5925 69.2302 20.3182 69.2302C15.8836 69.2302 11.7447 67.8192 6.94084 64.6012C5.68773 63.6976 4.23631 63.9959 3.56957 65.4052L0.675279 71.3442C0 72.7552 0.19831 74.0582 1.54203 74.9617C7.51867 78.9855 14.5416 81 20.6088 81C36.4924 81 45.2454 72.0402 45.2454 51.4289V16.6235C45.2454 15.1131 44.3803 14.2095 42.9375 14.2095H36.3933H36.3915Z" fill="white"/>
</g>
<defs>
<clipPath id="clip0_1084_36">
<rect width="71" height="81" fill="white"/>
</clipPath>
</defs>
</svg>
