<svg width="509" height="56" viewBox="0 0 509 56" fill="none" xmlns="http://www.w3.org/2000/svg">
<g clip-path="url(#clip0_1084_49)">
<path d="M1.52185 54.8691C7.80435 49.6435 12.526 44.7298 15.1404 44.9638C16.5843 44.9638 18.5353 45.3148 20.9547 45.5878V10.2953C18.8475 10.4123 14.8283 10.4903 13.3845 10.4903C2.92663 10.4903 0.780435 6.86355 0 1.9889L0.429239 1.79391C1.71696 2.14489 7.29707 2.37887 12.9942 2.37887C21.7741 2.37887 24.1545 1.48193 30.7882 1.48193C41.9094 1.48193 45.6945 7.40951 45.6945 15.209V42.546C41.168 45.5098 32.6222 52.7243 29.4224 56C25.2081 54.9861 12.0187 52.8803 8.58479 52.8803C6.75077 52.8803 4.95576 53.5822 2.02913 55.6101L1.52185 54.8691ZM0.312174 53.2312C3.43392 50.4234 5.85327 47.8886 5.85327 43.8719V22.1115L16.077 12.3622L16.8184 13.1031L15.8038 14.156V34.7076C15.8038 37.5154 15.6087 40.2452 13.1503 42.78C9.63838 46.4457 4.05826 51.3204 0.819457 53.8942L0.273152 53.1922L0.312174 53.2312ZM22.0083 10.2563V29.4039L34.8855 15.9109V15.5989C34.8855 10.7633 30.3589 9.98333 28.1347 9.90533C27.3152 9.90533 24.7008 10.1003 22.0083 10.2563ZM22.0083 39.8162L34.8855 25.6212V17.5488L22.0083 31.0418V39.8162ZM34.9245 47.3037V27.2981L22.0473 41.4541V45.5878C26.847 46.2507 32.31 47.5376 34.7294 47.5376L34.9245 47.3037Z" fill="white"/>
<path d="M65.6348 44.6127L67.3908 42.8968L68.0541 43.6378L59.8205 51.6712L52.6796 45.6656V45.3927L54.0063 43.8328V20.1615L52.2893 18.7576L50.9626 20.1225L50.2212 19.4205L58.1426 11.6991L63.9959 16.6127V43.1698L65.6348 44.5737V44.6127ZM58.2207 0.818848C60.2108 3.19768 61.9667 4.05562 64.8544 4.05562C65.3226 4.05562 65.8299 4.05562 66.4543 3.97762L66.5713 4.2506C64.7763 7.21439 60.718 9.9442 56.7378 9.9442C55.0599 9.9442 52.9917 9.39823 51.587 8.07233L58.2597 0.818848H58.2207Z" fill="white"/>
<path d="M80.1508 29.9498L79.5655 29.2089L71.8782 20.0446L78.5899 11.6992H79.0972C81.4775 15.0919 84.2871 16.8468 85.3407 16.7688C87.76 14.8969 88.2283 13.961 90.5306 11.6992L96.8521 17.0418L96.4229 18.0947C96.4229 23.9443 96.4229 41.571 96.4229 43.2479L98.0228 44.6128L99.8178 42.8969L100.442 43.5989L92.1695 51.6713L86.1211 46.4847C84.7554 47.6936 82.0238 49.9944 79.5264 52.0613H79.3704C75.078 51.0473 69.771 44.8468 69.771 39.4262C69.771 35.0975 72.6196 30.8078 79.5264 29.1309L80.1118 29.8719L80.1508 29.9498ZM86.2772 20.1615L84.3651 18.4457C82.0238 20.3565 78.2777 22.7744 73.1269 19.9276L83.9359 32.9916L83.0774 33.5766L80.1508 29.9498C79.2533 31.2758 78.8631 32.9136 78.8631 35.1365C78.8631 40.0891 83.3116 45.3927 85.7699 46.1727L86.3943 45.5097L86.2382 20.2005L86.2772 20.1615ZM81.5166 9.94428C85.1456 7.17547 88.1893 3.27575 90.4525 0.428955L96.8911 3.35375C95.2132 4.99163 90.2184 9.74929 82.5701 10.8022L81.5166 9.94428Z" fill="white"/>
<path d="M104.305 45.6658V45.3928L105.671 43.8329V20.1616L104.071 18.7577L102.666 20.1226L101.964 19.4207L109.807 11.6992L115.739 16.6129V18.4457L122.489 12.0502C123.699 13.4931 127.094 16.6519 129.201 18.1338L129.279 18.6017C128.499 19.6547 124.636 23.9833 122.723 25.1923C119.719 23.1644 117.768 21.1365 116.09 19.4987L115.7 19.6936V43.209L117.377 44.6129L119.094 42.897L119.797 43.6379L111.563 51.6714L104.305 45.6658Z" fill="white"/>
<path d="M145.512 44.6127L147.268 42.8968L147.932 43.6378L139.698 51.6712L132.479 45.6656V45.3927L133.806 43.8328V20.1615L132.167 18.7576L130.762 20.1225L130.099 19.4205L137.981 11.6991L143.834 16.6127V43.1698L145.473 44.5737L145.512 44.6127ZM138.098 0.818848C140.127 3.19768 141.844 4.05562 144.732 4.05562C145.161 4.05562 145.707 4.05562 146.293 3.97762L146.449 4.2506C144.615 7.21439 140.556 9.9442 136.615 9.9442C134.976 9.9442 132.869 9.39823 131.425 8.07233L138.137 0.818848H138.098Z" fill="white"/>
<path d="M179.422 43.5598C169.667 45.0417 165.491 48.7854 162.76 52.0222C157.882 50.7743 152.692 46.6796 151.17 44.2228V44.1058C151.326 43.1308 151.522 38.4902 151.522 37.4372V17.9776C162.292 17.1197 167.325 12.401 168.73 11.0361C173.686 11.4261 177.744 15.1698 179.617 18.3286C179.422 20.3175 179.422 24.6072 179.422 26.401V43.5208V43.5598ZM169.355 22.2283C167.052 19.1866 164.087 17.7437 161.706 16.7297L161.55 16.8077V40.2061C163.501 42.6629 166.623 44.2228 169.316 44.7687V44.6127V22.2283H169.355Z" fill="white"/>
<path d="M230.073 43.5988C220.98 45.1197 216.571 48.2785 213.41 52.0222C209.781 50.6963 204.825 48.6685 201.782 44.2228V44.1058C201.938 43.5208 202.172 38.1782 202.172 37.1643V19.2646C206.816 17.1587 210.796 14.8969 212.162 14.1949L201.977 6.35648L209.04 -0.0390625C215.01 4.17264 226.756 14.0779 230.19 17.5487L230.073 22.7743V43.5598V43.5988ZM219.966 21.0194L212.318 14.4289L212.201 14.5069V40.1671C214.113 42.6629 217.273 44.2228 219.927 44.7687V44.6127V21.0194H219.966Z" fill="white"/>
<path d="M260.197 42.5069C257.895 44.0278 251.847 48.4735 247.983 52.0223C245.681 50.1114 241.974 46.2897 236.394 44.1058C236.472 43.2479 236.628 41.259 236.667 40.2061V18.0167C242.52 17.6657 249.7 15.2479 253.915 11.0752C257.154 13.0641 260.939 17.4707 262.89 20.5125L246.774 33.0306V37.8663C248.491 39.2702 254.227 44.3788 255.788 44.4958L259.69 41.727L260.197 42.468V42.5069ZM254.812 25.4262C253.837 23.4373 248.569 18.5627 246.969 17.0808L246.774 17.1588V31.5877L254.773 25.4262H254.812Z" fill="white"/>
<path d="M303.394 20.1615L306.555 25.0362L315.296 15.9108V14.0389C309.404 13.688 304.409 11.1921 301.287 8.22835C304.097 5.57654 306.321 3.3147 308.389 1.13086C310.691 3.15871 313.384 6.62947 318.496 6.62947C322.593 6.62947 325.286 4.40663 326.222 2.76874L326.69 2.88573C326.69 6.55147 323.53 13.025 316.193 14.0779V39.8551L320.798 46.5236L323.725 44.4178L324.388 45.2367C320.759 48.0835 317.208 51.1253 313.579 54.0891L287.786 15.5208V40.479C293.054 40.791 297.814 43.9108 300.585 48.7075C297.619 50.7743 294.771 53.0362 292 55.376C290.868 52.8802 287.395 46.4066 281.035 46.4066C278.498 46.4066 276.742 48.5125 276.742 50.5403C276.742 51.5153 276.742 54.0891 278.811 55.415L278.303 55.9609C276.04 54.713 275.143 52.1392 275.143 50.1894C275.143 46.0556 278.498 40.44 286.732 40.4011V13.9609C280.957 5.34256 278.85 4.95259 277.64 4.7186V3.97766C282.479 3.58768 287.161 3.19771 291.259 2.18378L303.355 20.1615H303.394ZM310.457 30.8467L315.257 25.6211V17.5487L307.062 26.0111L310.418 30.8467H310.457ZM315.296 27.298L311.082 31.9387L315.296 38.3342V27.298Z" fill="white"/>
<path d="M355.098 43.5598C345.382 45.0417 341.206 48.7854 338.475 52.0222C333.597 50.7743 328.368 46.6796 326.846 44.2228V44.1058C327.002 43.1308 327.236 38.4902 327.236 37.4372V17.9776C338.006 17.1197 343.001 12.401 344.445 11.0361C349.401 11.4261 353.459 15.1698 355.293 18.3286C355.137 20.3175 355.137 24.6072 355.137 26.401V43.5208L355.098 43.5598ZM345.03 22.2283C342.767 19.1866 339.801 17.7437 337.382 16.7297L337.226 16.8077V40.2061C339.216 42.6629 342.338 44.2228 344.991 44.7687V44.6127V22.2283H345.03Z" fill="white"/>
<path d="M378.355 15.9498V17.0807H372.697V43.2088L374.258 44.6127L377.653 41.298L378.355 42.0779L368.522 51.7102L361.264 45.8216V45.5097L362.59 43.8328V17.0807H359.234V15.9498H362.668L362.512 10.0222L361.693 10.3342L361.264 9.63223C365.088 6.78544 369.146 3.89964 372.229 0.974854H372.697V15.9498H378.355Z" fill="white"/>
<path d="M394.744 44.6128L396.461 42.8969L397.203 43.5989L388.93 51.6713L381.711 45.6657V45.3927L383.038 43.8329V20.1615L381.438 18.7966L380.033 20.1225L379.37 19.3816L387.213 11.6602L393.105 16.6128V43.2089L394.744 44.5738V44.6128ZM380.97 9.94428C384.599 7.17547 387.642 3.27575 389.905 0.428955L396.383 3.35375C394.666 4.99163 389.71 9.74929 382.062 10.8022L381.009 9.94428H380.97Z" fill="white"/>
<path d="M424.05 18.4846C422.528 20.6684 419.25 23.2812 417.377 24.4511C415.309 23.2422 412.187 20.8634 410.548 18.1336L410.392 18.2896V37.9442C412.109 39.3481 417.377 44.0277 419.445 44.5737L423.269 41.8439L423.854 42.5849C420.967 44.6517 415.387 48.5124 411.563 52.0612C409.338 49.8773 405.28 46.7186 399.973 44.1447C400.129 43.2868 400.246 41.2979 400.324 40.245V18.1726C406.997 17.7826 412.538 15.6768 415.894 11.3091H416.323C417.962 13.6489 422.098 16.9637 423.893 18.1726L424.05 18.5236V18.4846Z" fill="white"/>
<path d="M441.531 44.6127L443.326 42.8968L443.99 43.6378L435.756 51.6712L428.537 45.6656V45.3927L429.864 43.8328V20.1615L428.225 18.7576L426.82 20.1225L426.118 19.4205L434.039 11.6991L439.892 16.6127V43.1698L441.492 44.5737L441.531 44.6127ZM434.117 0.818848C436.146 3.19768 437.863 4.05562 440.751 4.05562C441.18 4.05562 441.726 4.05562 442.312 3.97762L442.468 4.2506C440.634 7.21439 436.576 9.9442 432.634 9.9442C430.956 9.9442 428.888 9.39823 427.444 8.07233L434.156 0.818848H434.117Z" fill="white"/>
<path d="M456.086 29.989L455.462 29.209L447.814 20.0057L454.486 11.7383H455.033C457.374 15.053 460.184 16.8079 461.315 16.7689C463.657 14.8971 464.164 13.9221 466.466 11.7383L472.866 17.0419L472.358 18.0948C472.358 23.9444 472.28 41.5322 472.28 43.248L473.958 44.6519L475.675 42.8971L476.417 43.599L468.066 51.6714L462.096 46.5238C460.73 47.6937 457.92 49.9556 455.462 52.0614H455.345C451.014 51.0865 445.746 44.9249 445.746 39.4653C445.746 35.0976 448.633 30.8469 455.501 29.17L456.125 29.95L456.086 29.989ZM462.252 20.1617L460.301 18.4458C457.959 20.3567 454.213 22.7745 449.062 19.8887L459.871 32.9918L459.013 33.5377L456.125 29.989C455.189 31.2759 454.799 32.9528 454.799 35.1366C454.799 40.1283 459.208 45.3539 461.666 46.2118L462.291 45.4709L462.213 20.2007L462.252 20.1617Z" fill="white"/>
<path d="M505.41 20.1615L499.713 25.7771C504.434 27.532 506.424 30.3398 506.424 33.6156V44.1838C499.362 44.8857 495.069 47.5376 491.128 52.9972H490.855C489.528 49.7604 485.704 45.5487 481.216 44.2228L478.173 47.1476L477.548 46.5626L487.577 36.5793C484.416 35.6044 480.787 32.9136 480.787 27.766V17.1977C491.284 17.1977 493.586 13.727 495.225 10.7632H495.303C496.435 12.0111 500.103 15.8328 505.059 15.8328C506.971 15.8328 508.18 14.3509 508.297 12.3621H509.039C509.117 14.7799 508.102 17.5097 505.41 20.1225M496.63 46.0557V33.6545L494.055 31.5877L484.143 41.298C490.074 40.0111 494.289 43.1699 496.552 46.0557H496.669H496.63ZM490.23 28.4679L493.469 30.9247L503.42 20.8245C502.522 21.2924 500.961 21.9164 499.83 21.9164C496.591 21.9164 492.103 20.5905 490.348 16.8857H490.191V28.4289L490.23 28.4679Z" fill="white"/>
</g>
<defs>
<clipPath id="clip0_1084_49">
<rect width="509" height="56" fill="white"/>
</clipPath>
</defs>
</svg>
