<svg width="299" height="64" viewBox="0 0 299 64" fill="none" xmlns="http://www.w3.org/2000/svg">
<g clip-path="url(#clip0_1084_39)">
<path d="M297.961 13.7958C297.876 14.6762 297.742 15.5506 297.554 16.4189C297.347 17.2751 295.396 22.1024 295.25 22.8979C295.165 23.6751 295.123 24.4523 295.129 25.2356C294.533 25.4967 293.172 26.5108 292.449 26.5108C291.726 26.5108 290 24.8652 289.252 24.6649C289.252 22.6307 289.775 22.4607 289.593 21.4041C289.295 20.1836 288.869 18.9996 288.322 17.8762C288.116 17.354 288.061 16.7833 288.17 16.2307C287.867 16.6679 287.757 17.2022 287.848 17.7244C288.037 18.8478 288.936 20.5419 289.064 21.2888C289.191 22.0356 289.155 22.8857 288.869 23.074C286.84 22.8554 284.877 22.2178 283.108 21.2038C281.741 20.4205 280.331 19.7161 278.884 19.0967C279.747 17.2812 280.829 15.5871 282.111 14.0387C283.175 12.7575 284.439 11.6523 285.861 10.778C287.806 9.80035 289.982 9.36923 292.151 9.53925C293.476 9.69105 294.789 9.94608 296.071 10.3104C296.071 10.3104 297.329 9.266 298.289 9.5939C298.016 10.3165 297.706 11.0573 297.706 11.0573L298.952 11.7799C298.581 12.4296 298.247 13.0975 297.955 13.7836M241.935 32.3764C241.953 33.9188 242.506 35.4064 243.497 36.5966C243.509 36.6026 243.521 36.6208 243.533 36.6269C243.223 35.6189 242.968 34.5988 242.774 33.5666V31.5142C243.023 30.0751 243.454 28.6725 244.056 27.3427C244.044 27.3487 244.044 27.3609 244.038 27.3609C244.032 27.3609 243.989 27.4034 243.971 27.4155C243.442 27.9317 243.004 28.5267 242.664 29.1825L242.591 29.3343C242.221 30.0994 242.008 30.9252 241.953 31.7692C241.941 31.9332 241.929 32.0971 241.929 32.2611C241.929 32.2975 241.941 32.3339 241.941 32.3764M276.034 21.4831C276.144 21.4224 276.229 21.3373 276.289 21.228C276.466 20.9548 276.63 20.6694 276.77 20.378C276.77 19.8375 275.633 19.8922 275.39 19.6979C275.147 19.5036 275.038 19.2243 274.661 19.0542L274.643 19.1089C274.63 19.206 274.63 19.3396 274.63 19.4732C274.697 19.8254 274.728 20.1776 274.728 20.5358C274.734 20.9912 274.679 21.4527 274.564 21.896C274.776 21.9749 274.983 22.066 275.183 22.1692C275.42 21.8899 275.706 21.6592 276.022 21.477M275.894 17.3358L271.47 12.3688L268.602 14.7613L268.711 15.1074C268.808 15.3563 268.924 15.5931 269.052 15.8239C269.197 16.0728 269.355 16.3096 269.532 16.5404C269.732 16.7954 269.945 17.0444 270.176 17.269C270.212 17.3055 270.249 17.3298 270.279 17.3662C270.905 17.9552 271.646 18.4167 272.455 18.7203C272.929 18.8964 273.427 18.9874 273.925 19.0057L275.901 17.3358H275.894ZM273.743 9.12027V7.81477C273.761 7.66297 273.713 7.50509 273.609 7.39579C273.439 7.31078 273.281 7.20756 273.141 7.08612C273.093 7.04968 273.044 7.00111 273.008 6.96467C272.704 7.03147 272.382 6.99503 272.102 6.86145C271.944 6.8068 271.792 6.72786 271.665 6.61856C271.507 6.48498 271.416 6.29067 271.403 6.08422C271.258 6.08422 271.112 6.066 270.978 6.04779V6.89788C270.99 6.93431 270.99 6.97075 271.002 7.00111C271.166 7.57188 271.057 8.17909 270.705 8.65879C270.322 9.19314 269.708 9.52103 269.045 9.5271C269.015 9.77606 269.021 10.025 269.058 10.274C269.088 10.4986 269.331 11.118 269.422 11.452C269.635 12.0531 269.75 12.6785 269.781 13.31L270.437 12.7575C270.303 12.2353 270.139 11.6888 269.993 11.1484C269.89 10.778 269.787 10.4136 269.696 10.0614C270.431 9.91572 271.069 9.46638 271.464 8.82881C271.835 8.95632 272.218 9.05955 272.601 9.12634H273.755L273.743 9.12027ZM275.396 7.44437C275.572 7.26828 275.53 6.83716 275.196 6.10243C275.074 5.94456 274.934 5.79883 274.788 5.66524C274.527 5.79883 274.418 5.79883 274.333 5.84741C274.266 5.96278 274.187 6.07207 274.102 6.18137C274.041 6.24816 273.889 6.22388 273.828 6.27245C273.743 6.49105 273.591 6.67928 273.391 6.81287C273.646 7.04361 273.938 7.23185 274.26 7.35329C274.478 7.4383 275.214 7.60224 275.396 7.4383M276.241 4.45689C277.013 4.01363 277.675 3.40642 278.192 2.67777C278.052 2.62919 277.912 2.56847 277.784 2.4956C277.256 2.17985 276.8 1.74873 276.46 1.23868C275.992 2.35595 275.256 3.3457 274.32 4.11078C274.363 4.20187 274.399 4.29295 274.43 4.3901C274.442 4.42046 274.448 4.45082 274.454 4.48118C274.503 4.73014 274.509 4.97909 274.466 5.22805C275.092 5.05196 275.7 4.79086 276.259 4.45689M278.453 2.25879C278.453 2.25879 278.465 2.25879 278.471 2.25272C278.496 2.22843 278.508 2.19807 278.502 2.16771C278.398 1.74873 278.161 1.38441 277.821 1.11724C277.633 0.935072 277.432 0.771125 277.213 0.631467C276.976 0.485737 276.788 0.425016 276.685 0.461448C276.672 0.461448 276.66 0.473592 276.648 0.479664C276.636 0.497881 276.63 0.510025 276.624 0.528241C276.605 0.58289 276.612 0.649683 276.636 0.704332C276.782 1.05651 277.007 1.37226 277.292 1.62729C277.778 2.09484 278.289 2.38023 278.447 2.25879M273.822 4.18365L272.704 4.27473C272.704 4.27473 272.163 4.65727 272.09 4.99124C272.072 5.22198 272.072 5.45272 272.09 5.68346L273.84 5.71989C274.126 5.24627 274.12 4.65727 273.828 4.18972M272.582 6.57606C273.5 6.64285 273.451 6.11458 273.451 6.11458L271.865 6.09029C271.865 6.09029 271.665 6.52141 272.582 6.57606ZM270.285 4.70585C270.145 4.55405 269.975 4.42653 269.787 4.32938C269.592 4.51154 269.325 4.7605 269.076 4.94873C269.064 4.96088 269.064 4.96695 269.052 4.96695C268.966 5.04589 268.863 5.11268 268.76 5.16733C268.584 4.99124 268.456 4.77264 268.389 4.53583C268.371 4.48118 268.359 4.42046 268.359 4.36581C268.34 4.19579 268.432 4.03185 268.59 3.95898C268.778 3.88612 268.96 3.80718 269.131 3.71002C269.155 3.57644 269.216 3.455 269.307 3.35177C269.228 3.15746 269.124 2.9753 268.997 2.81135L268.523 2.53204C268.34 2.43488 268.164 2.33166 267.994 2.21021C267.994 2.50775 268.018 2.69598 268.018 2.91458V2.99352C268.018 3.11496 268.031 3.24854 268.037 3.36999C268.037 3.6068 268.049 3.83754 268.049 4.06828H267.642C267.642 3.98934 267.642 3.9104 267.629 3.83754C267.629 3.70395 267.629 3.58858 267.617 3.455C267.605 3.32141 267.599 3.18175 267.599 3.05424C267.569 2.52596 267.526 2.02198 267.484 1.54836C267.429 1.53014 267.368 1.51799 267.313 1.51192C267.21 1.49371 267.107 1.48156 267.003 1.46335H266.949C266.87 1.46335 266.791 1.46942 266.712 1.46942C266.687 1.53014 266.87 2.57454 266.912 2.76278C266.931 2.866 267.107 3.96505 267.107 4.02577V4.07435H266.718L266.706 4.09257C266.627 3.6068 266.536 3.13925 266.426 2.68991C266.323 2.27094 266.207 1.87625 266.092 1.49371C265.721 1.54228 265.363 1.63336 265.016 1.77302C265.004 1.7791 264.992 1.7791 264.986 1.79124C264.749 1.89447 264.524 2.02805 264.317 2.17985C264.281 2.20414 264.25 2.22843 264.22 2.25879C264.08 2.40452 263.947 2.55632 263.825 2.72027C263.637 2.9753 263.485 3.21211 263.375 3.36999C263.309 3.46714 263.309 3.59465 263.242 3.74039C263.217 3.81932 263.193 3.89219 263.175 3.97113C263.157 4.05613 263.15 4.14114 263.138 4.22615V4.2383C263.138 4.2383 263.181 4.25044 263.199 4.26259C263.333 4.29902 263.454 4.32938 263.576 4.35367C263.904 4.42046 264.232 4.45689 264.566 4.45689C264.597 4.45689 264.627 4.46297 264.658 4.46297C264.816 4.46297 264.974 4.45689 265.132 4.43868H265.144V4.46297C265.271 4.96088 265.533 5.41629 265.891 5.78061C266.171 6.07815 266.505 6.32103 266.876 6.49105C266.961 6.53355 267.046 6.56391 267.137 6.5882C267.192 6.60642 267.24 6.62464 267.295 6.63678C267.289 6.72179 267.283 6.80073 267.283 6.88574C267.283 7.01325 267.283 7.13469 267.271 7.25006L267.587 7.28649C267.587 7.1772 267.599 7.0679 267.599 6.96467C267.599 6.92217 267.599 6.87359 267.611 6.83109V6.61856C267.611 6.48498 267.611 6.35746 267.623 6.21173V5.98706C267.623 5.85348 267.623 5.71382 267.636 5.58023V5.50737C267.636 5.45879 267.648 5.41021 267.648 5.37378V5.2402H268.043V5.59238C268.073 5.62881 268.103 5.65917 268.134 5.6956C268.134 5.6956 268.146 5.6956 268.146 5.70168C268.292 5.85955 268.438 6.02957 268.584 6.19352C268.626 6.24209 268.669 6.29674 268.711 6.33925C268.723 6.34532 268.729 6.35746 268.735 6.36961C268.754 6.38782 268.766 6.40604 268.784 6.42426C268.893 6.55177 268.997 6.67928 269.094 6.8068C269.216 6.73393 269.331 6.64892 269.434 6.55177C269.532 6.46676 269.617 6.37568 269.69 6.27245C269.726 6.22388 269.763 6.1753 269.793 6.12065C269.835 6.05386 269.872 5.98099 269.908 5.90205C269.927 5.85348 269.957 5.79883 269.975 5.75025C269.987 5.72596 270 5.70168 270.006 5.67739C270.042 5.57416 270.085 5.47701 270.133 5.37985C270.194 5.22198 270.309 5.08839 270.455 4.99731C270.419 4.90016 270.364 4.80908 270.291 4.73621M264.852 18.696L264.621 18.447C264.566 18.3863 264.518 18.3317 264.469 18.277C264.469 18.2649 264.451 18.2527 264.445 18.2406L262.986 19.4611L267.477 24.4706L267.654 24.3248L270.309 22.0842C269.44 21.8353 268.608 21.4831 267.824 21.0337C266.876 20.4933 266.001 19.8315 265.223 19.0664C265.205 19.0482 265.186 19.0299 265.168 19.0057C265.101 18.951 265.047 18.8903 264.992 18.8296C264.943 18.7871 264.901 18.7446 264.858 18.696M261.655 20.5176L261.637 20.5358L262.962 21.6045L266.226 24.2398L266.475 23.9484L263.138 20.214L263.047 20.1169C263.047 20.1169 263.023 20.1047 263.035 20.0926L262.676 19.6857L261.662 20.5176H261.655ZM261.522 22.3028L261.57 22.315L264.494 23.4322L264.725 23.5233L262.044 21.392L261.923 21.2948L261.528 22.3028H261.522ZM241.2 41.9218C241.084 41.4299 240.969 40.9077 240.853 40.5009L239.948 37.3616L238.677 32.9594C237.687 29.5165 239.68 25.9218 243.126 24.9381C243.703 24.7742 244.299 24.6892 244.894 24.6892C245.204 24.6892 245.514 24.7134 245.824 24.7559C246.031 24.7377 246.244 24.7013 246.45 24.6588C246.554 24.6406 246.651 24.6102 246.748 24.5677C246.821 24.5434 246.9 24.5191 246.967 24.4888C247.101 24.4402 247.24 24.3734 247.392 24.3066C247.635 24.1973 247.884 24.088 248.122 23.9909C249.288 23.4747 250.516 23.1165 251.78 22.9343C253.342 22.7096 254.934 22.74 256.49 23.0072C257.414 23.1711 258.325 23.4262 259.2 23.7723C259.535 23.8876 259.875 23.9787 260.221 24.0455C260.786 24.0455 260.835 23.4504 261.528 23.4504C261.856 23.5233 262.172 23.6387 262.47 23.7905C262.47 23.7905 262.379 23.9241 262.373 23.9241C261.09 26.0068 260.136 28.2717 259.541 30.6398C259.528 30.6823 259.516 30.7248 259.504 30.7673L259.419 31.1134C259.419 31.1134 268.669 34.8356 268.693 34.8539C268.76 34.696 270.37 30.8038 270.37 30.8038C270.37 30.8038 272.072 31.9878 272.953 32.51C272.917 33.2205 272.923 33.9248 272.965 34.6353C273.117 37.392 273.616 41.4846 273.767 42.7537C273.901 42.9115 273.998 43.0694 274.217 43.0694C274.436 43.0694 276.83 42.8144 277.487 41.9339L277.08 35.8679L276.782 31.4231L273.616 23.8755L273.123 22.7036L272.187 24.9442L268.353 34.1313L260.081 30.8584C260.081 30.8584 260.094 30.8098 260.094 30.7855C260.094 30.7734 260.094 30.7673 260.106 30.7613C260.106 30.7248 260.118 30.6945 260.13 30.658C260.75 28.1745 261.765 25.8003 263.144 23.6387C263.181 23.5355 263.211 23.4808 263.211 23.4687C263.211 23.2865 263.223 23.3169 263.169 23.2744L261.011 22.4607L261.577 21.0095L261.036 20.5723L261.181 20.4447L261.722 20.0015L262.561 19.3093L263.576 18.4652L264.026 18.0888L264.19 17.9552L263.989 17.6759C263.989 17.6759 263.661 17.2387 263.509 17.0079C263.169 16.504 262.871 15.9757 262.622 15.4292C262.464 15.077 262.324 14.737 262.215 14.3969C262.16 14.2694 262.117 14.1419 262.099 14.0083C261.978 13.5711 261.886 13.1279 261.826 12.6785C261.789 12.4235 261.771 12.1624 261.771 11.9013V11.7981C261.777 11.3002 261.917 10.8144 262.178 10.3954C262.257 10.2497 262.36 10.1161 262.476 9.99465L262.531 9.94608C262.616 9.84892 262.707 9.75784 262.804 9.67283C262.999 9.51496 263.211 9.38137 263.436 9.27815C263.582 9.19314 263.734 9.12634 263.898 9.07169C263.898 9.07169 263.91 9.07169 263.91 9.05955C263.922 8.93811 263.922 8.80452 263.934 8.6345C264.026 8.64665 264.123 8.65879 264.208 8.67701C264.457 8.71344 264.7 8.77416 264.937 8.85917C264.955 8.85917 264.974 8.87131 264.992 8.87739C264.919 8.40376 264.36 8.31268 264.178 8.05158C264.135 8.003 264.105 7.93621 264.105 7.86942C264.105 7.8087 264.123 7.74797 264.159 7.69333C264.232 7.61439 264.275 7.51116 264.287 7.40186C264.287 7.35329 264.275 7.29864 264.25 7.25613C264.232 7.20756 264.196 7.17112 264.159 7.14076L264.147 7.12862C264.117 7.10433 264.086 7.08612 264.05 7.07397C264.007 7.03754 263.965 7.00718 263.928 6.98289C263.874 6.93431 263.819 6.87966 263.77 6.83109C263.302 6.35746 262.974 5.75632 262.828 5.10054C262.816 5.05196 262.816 4.99731 262.798 4.94266C262.78 4.88801 262.78 4.80908 262.774 4.73621C262.755 4.51762 262.762 4.29295 262.786 4.07435C262.798 4.01363 262.804 3.94076 262.816 3.87397C262.962 3.15746 263.345 2.50775 263.904 2.03412C264.062 1.90661 264.226 1.78517 264.396 1.67587C264.408 1.6698 264.421 1.65765 264.433 1.64551C264.633 1.52407 264.852 1.42084 265.077 1.3419C265.113 1.32369 265.156 1.31154 265.192 1.30547C265.217 1.29333 265.241 1.28725 265.271 1.28725C265.478 1.22046 265.697 1.17188 265.91 1.13545C266.098 1.10509 266.292 1.08687 266.487 1.08687C266.615 1.08687 266.742 1.08687 266.864 1.09902C266.918 1.09902 266.973 1.11116 267.016 1.11724L267.143 1.12938H267.453C267.569 1.12938 267.69 1.12331 267.824 1.12331C267.854 1.16581 267.891 1.20832 267.915 1.25689L267.945 1.30547C268.049 1.48763 268.134 1.65765 268.195 1.77302C268.207 1.79124 268.207 1.79731 268.219 1.80946C268.249 1.85803 268.28 1.90054 268.322 1.93697C268.65 2.24058 269.197 2.32558 269.319 2.59883C269.44 2.87207 269.908 3.81325 269.908 3.81325C269.908 3.81325 270.893 4.92445 270.893 4.97302C270.893 5.17947 270.881 5.27663 271.027 5.42843C271.227 5.37378 271.422 5.30699 271.616 5.23412C271.628 5.08232 271.64 4.92445 271.671 4.77264C271.689 4.73621 272.376 3.83147 272.734 3.86183C272.825 3.86183 274.041 3.76467 274.047 3.76467C275.129 2.91458 275.876 1.7123 276.168 0.370367V0.340006C276.168 0.340006 276.18 0.297501 276.186 0.273213C276.204 0.218564 276.235 0.176059 276.277 0.139627C276.417 0.0303286 276.605 -0.00610402 276.776 0.0485449C276.958 0.0910497 277.14 0.157843 277.304 0.254997C277.602 0.425015 277.876 0.631467 278.119 0.874351C278.198 0.953289 278.271 1.02615 278.338 1.10509C278.489 1.27511 278.629 1.46335 278.745 1.66373C278.951 1.92483 279.018 2.26486 278.939 2.58669L278.909 2.62919C278.046 3.9772 276.751 4.99124 275.232 5.5013C275.19 5.51951 275.147 5.5438 275.111 5.56809C275.414 5.85955 275.633 6.2178 275.755 6.61856H277.365V11.2334C277.365 11.3062 277.353 11.367 277.353 11.4337C277.353 11.5005 277.335 11.5673 277.323 11.6463C277.31 11.6888 277.304 11.7313 277.292 11.7799C277.238 11.9863 277.152 12.1806 277.037 12.3567C277.013 12.3931 276.982 12.4296 276.958 12.4721C276.606 12.9518 276.077 13.2675 275.493 13.3586C275.39 13.3768 275.275 13.3829 275.165 13.389H272.935L276.563 17.4633C276.563 17.4633 275.481 18.3499 275.111 18.696C275.275 18.9328 275.463 19.1453 275.67 19.3396C275.919 19.4854 277.456 19.6129 277.335 20.3476C277.323 20.4326 277.304 20.5176 277.274 20.5966C277.098 20.9548 276.885 21.2888 276.636 21.5984C276.387 21.9203 275.858 21.9506 275.682 22.491C275.949 22.6671 276.144 22.9222 276.253 23.2258C277.134 22.2057 277.912 21.1005 278.575 19.9286C280.44 20.4022 284.925 22.8979 286.104 23.2683C286.943 23.4929 287.8 23.6569 288.657 23.7601C288.541 24.0394 288.462 24.3248 288.42 24.6224C288.432 24.7317 288.784 24.8349 289.198 25.0838C289.416 25.2114 289.617 25.3692 289.793 25.5575C289.708 26.5897 289.854 27.622 290.231 28.5874C290.37 28.9153 290.486 29.2554 290.583 29.6015C290.62 29.7108 290.644 29.8201 290.674 29.9354C290.729 30.1905 290.784 30.4516 290.826 30.7188C290.875 31.0588 290.911 31.4049 290.93 31.7571C290.93 31.8482 290.942 31.9392 290.942 32.0303V32.4189C290.942 32.504 290.942 32.5829 290.93 32.6679C290.911 33.099 290.863 33.5301 290.796 33.9552C290.778 34.0463 290.759 34.1373 290.735 34.2406C290.711 34.3681 290.68 34.5138 290.65 34.6292C290.535 35.1028 290.383 35.5643 290.194 36.0076C290.17 36.0501 290.146 36.0986 290.127 36.1411C290.115 36.1776 290.103 36.2019 290.097 36.2262C290.091 36.2383 290.079 36.2504 290.079 36.2687C290.03 36.2626 289.988 36.2383 289.945 36.2262C289.665 36.129 289.392 36.0076 289.137 35.8558C288.973 35.7525 288.809 35.6432 288.651 35.5218C288.486 35.3943 288.335 35.2546 288.195 35.1028C288.462 35.6797 288.863 36.1836 289.368 36.5723C289.453 36.633 289.544 36.7058 289.641 36.7666C289.708 36.7969 289.781 36.8273 289.848 36.8516C289.86 36.8516 291.075 37.2402 291.325 37.2948C292.643 37.5013 293.956 37.7988 295.238 38.1753C295.451 38.2482 295.834 37.7685 297.007 37.8595C298.064 37.981 298.903 38.8129 299.03 39.8694C299.006 40.6406 298.678 40.8288 298.569 41.2781C298.435 41.8489 297.535 46.743 297.438 47.5992C297.371 48.1396 297.359 48.9169 297.359 48.929C297.359 49.0079 297.578 49.9309 297.596 50.2406C297.596 50.3013 297.608 50.3438 297.608 50.4106C297.608 50.5502 297.596 50.6899 297.572 50.8296C297.505 51.4186 297.195 51.9529 296.721 52.3051C296.709 52.3354 296.703 52.3658 296.691 52.3901C296.624 52.6269 296.545 52.8637 296.46 53.1005C296.022 54.2967 295.336 55.3897 294.442 56.3066L294.418 56.2641L292.637 52.8698L292.613 52.8334C292.996 52.1229 293.482 51.4793 294.059 50.9146C294.132 50.8356 294.211 50.7567 294.29 50.6838C294.473 50.5199 294.655 50.362 294.843 50.2041C294.843 50.1556 294.831 50.0948 294.831 50.0463C294.831 49.3905 295.105 48.765 295.579 48.3157C295.645 48.2489 295.718 48.1821 295.797 48.1214C295.797 47.9878 296.071 42.8569 295.852 40.9685C295.135 40.8592 294.454 40.6041 293.841 40.2216C293.664 40.088 288.012 40.6284 287.842 40.6466C287.672 40.6649 287.198 40.4341 286.87 40.4402C286.542 40.4402 286.013 40.5191 285.813 40.5191C285.436 40.5191 285.077 40.3977 284.773 40.1791C284.457 39.9484 284.226 39.6083 284.135 39.2258C284.111 39.1408 284.093 39.0558 284.087 38.9647V38.7704C284.087 38.7096 284.093 38.6489 284.105 38.5882L284.135 38.406C284.178 38.2542 284.239 38.1085 284.318 37.9749C284.008 37.8838 283.704 37.7624 283.412 37.6167C283.139 37.477 282.871 37.3191 282.622 37.143C282.008 36.7119 281.486 36.1594 281.084 35.5279C280.945 35.3093 280.823 35.0846 280.72 34.8478C281.066 36.2808 281.96 37.5195 283.205 38.3089C283.187 38.4243 283.175 38.5457 283.169 38.6732C283.163 38.8979 283.181 39.1225 283.23 39.3411C283.333 39.8148 283.558 40.252 283.886 40.6102C284.269 41.0292 284.761 41.3267 285.314 41.4664C284.864 43.1301 283.874 45.9719 283.874 46.1783C283.461 47.4595 282.932 48.7043 282.306 49.9005C282.215 51.1392 282.039 52.3719 281.765 53.5863C281.723 53.8535 281.698 54.1206 281.698 54.3878C281.698 54.6003 281.583 55.9119 281.504 58.0311C281.504 58.2132 281.437 58.2375 281.437 58.4501C281.449 58.6262 281.504 58.7962 281.607 58.9419C281.607 58.948 281.625 58.9601 281.631 58.9723C281.704 59.0755 281.783 59.1666 281.856 59.2698C281.953 59.4034 282.051 59.543 282.148 59.6766C282.367 60.0045 282.561 60.3446 282.737 60.6967C282.829 60.8728 282.908 61.0489 282.981 61.225C283.023 61.2979 283.06 61.3768 283.09 61.4618C283.4 62.2269 283.613 63.0224 283.716 63.8421H279.541C279.589 63.5992 279.62 63.3563 279.632 63.1074C279.662 62.154 279.444 61.2129 279.006 60.3628C278.848 59.9317 278.617 59.537 278.325 59.1848C278.386 58.5776 278.496 57.9704 278.66 57.3814C278.915 56.6891 279.231 56.0273 279.614 55.3958C279.614 55.3958 279.875 50.3742 279.875 50.1616C279.875 49.9491 279.517 48.1336 279.371 47.2106C279.243 46.2391 278.97 45.2918 278.556 44.4053C278.459 44.2231 279.006 43.707 279.176 43.4034L279.073 43.3062C279.073 43.3062 279.024 43.3062 279 43.3184C278.781 43.5066 274.752 44.721 274.752 44.721C274.381 44.2231 273.962 43.7677 273.506 43.3548C271.732 43.2212 269.969 42.9965 268.219 42.6747C265.715 42.2193 263.248 41.5635 260.847 40.7074C260.44 40.5556 260.039 40.3977 259.662 40.252C259.644 40.2702 259.632 40.2884 259.62 40.3127V40.5252C259.62 40.7984 259.595 41.0778 259.559 41.351C259.456 42.4015 259.176 43.4216 258.726 44.381C258.538 44.7878 258.301 45.1764 258.027 45.5347L257.979 45.6379C258.167 46.0083 258.301 46.403 258.386 46.8098C258.447 47.0649 258.483 47.326 258.507 47.5931C258.532 47.915 258.532 48.2429 258.507 48.5647C260.233 50.6413 261.807 52.8334 263.23 55.1347C263.242 55.1529 263.254 55.165 263.26 55.1833C263.904 55.578 264.281 56.2945 264.25 57.0535C264.25 57.2842 264.214 57.515 264.159 57.7396C264.086 57.9886 263.977 58.2254 263.819 58.4379C263.88 58.6808 263.928 58.9115 263.971 59.1666C264.056 59.6948 264.086 60.2292 264.062 60.7635V60.8121C264.026 61.6076 263.868 62.3909 263.594 63.1377C263.533 63.2835 263.454 63.4292 263.375 63.5688L260.191 60.9761L260.112 60.9153C260.258 60.5328 260.428 60.1624 260.622 59.8041C260.829 59.4277 261.054 59.0573 261.303 58.7051C260.926 58.3286 260.683 57.8428 260.622 57.3146C260.61 57.2235 260.61 57.1263 260.61 57.0353C260.61 56.9563 260.622 56.8652 260.622 56.7802C260.647 56.2216 260.823 55.6812 261.133 55.2197C260.744 54.5396 259.808 53.2038 259.516 52.8334C258.957 52.1351 258.343 51.4793 257.681 50.8781C257.231 50.6535 256.751 50.4835 256.253 50.3742C256.332 50.3863 256.216 50.3681 256.253 50.3742C256.016 50.3499 255.274 50.2284 255.274 50.2284L254.156 50.0341L254.083 50.022L254.357 49.1476C254.357 49.1476 254.369 49.1172 254.369 49.0929C254.405 48.765 254.405 48.4372 254.369 48.1153C254.345 47.8846 254.29 47.6599 254.205 47.4413C254.174 47.3685 254.138 47.3077 254.114 47.2288C254.071 47.1438 254.022 47.0649 253.968 46.9859C253.95 46.9677 253.937 46.9495 253.919 46.9252C253.524 46.403 252.619 45.2432 252.467 45.0671C252.497 45.0368 252.527 44.9882 252.558 44.9639L252.6 44.9093C253.202 44.1624 253.713 43.3487 254.126 42.4865C254.326 42.0614 254.503 41.6303 254.655 41.1871C254.849 40.6284 255.001 40.0577 255.116 39.4747C255.171 39.2015 255.22 38.9343 255.262 38.6489C255.262 38.6246 255.262 38.5943 255.274 38.57C255.463 38.4425 255.645 38.3089 255.815 38.1632C256.314 37.7685 256.757 37.307 257.134 36.7909C257.371 36.4751 257.578 36.1351 257.754 35.7768L257.863 35.5521C257.821 35.6189 257.778 35.6857 257.73 35.7525C257.122 36.6087 256.338 37.3252 255.426 37.8535L255.335 37.9021C255.256 37.9506 255.177 37.9992 255.098 38.0356C254.916 38.1328 254.734 38.2178 254.545 38.2907C254.509 38.5518 254.46 38.8068 254.411 39.0558C254.332 39.4262 254.235 39.7783 254.126 40.1366C254.035 40.4463 253.919 40.7499 253.804 41.0474C253.615 41.5332 253.397 42.0068 253.147 42.4683C252.868 42.9905 252.546 43.4945 252.187 43.9681C252.096 44.0835 252.011 44.1988 251.926 44.3021C251.221 45.1704 250.388 45.9233 249.459 46.5366C248.96 46.8645 248.431 47.1438 247.878 47.3685C247.714 47.4353 247.562 47.5021 247.404 47.5506C247.113 48.2003 246.669 48.7711 246.11 49.2144C245.812 49.4208 245.545 49.6637 245.308 49.943C244.919 50.5685 244.627 51.2546 244.439 51.9651C244.117 53.1309 243.861 54.315 243.679 55.5051C243.679 55.7055 243.594 56.5616 243.594 56.7681C243.594 56.9745 244.202 59.0087 244.202 59.2273C244.202 59.2516 244.208 59.2698 244.226 59.2819C245.144 59.9742 245.861 60.891 246.31 61.9476C246.584 62.5487 246.766 63.1924 246.851 63.8482H243.302C243.211 63.2774 243.071 62.7248 242.871 62.1844C242.537 61.2736 242.05 60.4235 241.43 59.6766C241.297 59.5127 241.151 59.3548 240.999 59.203C240.944 59.0998 240.908 58.9844 240.908 58.863C240.902 58.8447 240.896 58.8205 240.896 58.7962C240.981 58.0675 241.169 57.351 241.455 56.6709C241.564 56.4645 241.643 56.2398 241.68 56.003C241.68 55.7966 242.032 51.6129 242.008 51.455C241.655 50.3863 241.2 49.3601 240.634 48.3886C240.841 48.1214 241.066 47.8725 241.315 47.6478C241.856 47.2349 242.257 46.6641 242.451 46.0083C242.488 45.8261 242.646 45.8079 242.646 45.6015C242.652 45.5347 242.64 45.4618 242.603 45.4011C241.801 46.0022 240.823 46.318 239.82 46.318C241.054 45.3039 241.625 43.6948 241.297 42.1343C241.285 42.0675 241.272 42.0007 241.254 41.94" fill="white"/>
<path d="M0 63.2895V12.3445H26.0592V20.9547H9.51087V32.6617H22.1272V41.272H9.51087V54.6792H26.7459V63.2895H0Z" fill="white"/>
<path d="M51.3528 26.5291C50.8302 24.5921 49.8639 22.8069 48.5269 21.3071C47.4269 20.2262 45.9319 19.6372 44.3883 19.6797C42.9359 19.5826 41.5138 20.123 40.4928 21.1613C39.5448 22.309 39.0586 23.7663 39.1497 25.2539C39.1619 26.5473 39.7392 27.7739 40.7359 28.6057C41.9392 29.6744 43.2579 30.6095 44.6679 31.3928C46.2297 32.2854 47.9313 33.2388 49.7667 34.2467C51.5898 35.2486 53.2975 36.4448 54.8655 37.8111C56.4455 39.1955 57.7765 40.841 58.7974 42.6809C59.9035 44.7636 60.4504 47.0953 60.3836 49.4573C60.4201 51.5097 60.0554 53.556 59.3201 55.4748C58.6394 57.2114 57.582 58.778 56.2207 60.0593C54.7804 61.3769 53.0788 62.3788 51.2252 62.986C49.0678 63.6964 46.8071 64.0426 44.5402 64.0061C40.8817 64.0911 37.3083 62.8889 34.4399 60.6179C31.614 58.3591 29.5599 54.7158 28.2715 49.682L37.6487 47.6357C37.8614 48.9898 38.2685 50.3135 38.858 51.5522C39.3138 52.5116 39.9337 53.386 40.6873 54.1329C41.3072 54.7462 42.0486 55.2259 42.8629 55.5416C43.5557 55.8148 44.2911 55.9545 45.0386 55.9666C48.4054 55.8331 51.0307 52.9913 50.891 49.6274C50.8363 48.1944 50.2711 46.8342 49.3109 45.7716C48.1501 44.5329 46.8253 43.452 45.3789 42.5594C43.8171 41.5697 42.1154 40.5981 40.2801 39.6327C38.4752 38.6915 36.7675 37.5803 35.1813 36.3173C33.6438 35.0968 32.3128 33.6274 31.2493 31.9697C30.1433 30.142 29.5902 28.035 29.6632 25.9036C29.4505 22.06 30.8057 18.2892 33.4189 15.4596C35.9227 12.9215 39.6541 11.6463 44.6192 11.6463C46.564 11.6221 48.5026 11.9317 50.344 12.5632C51.9849 13.1401 53.5042 14.0145 54.829 15.1439C56.1174 16.2551 57.1991 17.5788 58.0317 19.0604C58.8947 20.6088 59.5389 22.2725 59.9278 23.997L51.3589 26.5351L51.3528 26.5291Z" fill="white"/>
<path d="M93.4801 12.3445V20.9547H82.377V63.2895H72.8661V20.9547H61.769V12.3445H93.4861H93.4801Z" fill="white"/>
<path d="M87.269 63.2895L99.6058 12.3445H111.809L123.805 63.2895H114.708L112.295 52.56H99.1318L96.4457 63.2895H87.2751H87.269ZM100.846 43.9559H110.29L105.671 23.3532H105.537L100.852 43.9559H100.846Z" fill="white"/>
<path d="M125.799 12.3446H139.035C141.484 12.3081 143.921 12.63 146.273 13.2979C148.284 13.8747 150.126 14.9313 151.645 16.3704C153.195 17.9066 154.362 19.7768 155.054 21.8414C155.923 24.4706 156.379 27.2212 156.397 29.9901V45.6562C156.379 48.425 155.923 51.1757 155.054 53.8049C154.355 55.8694 153.189 57.7396 151.645 59.2759C150.126 60.715 148.278 61.7654 146.267 62.3423C143.915 63.0102 141.472 63.3321 139.029 63.2956H125.792V12.3446H125.799ZM135.316 54.6793H138.628C140.882 54.819 143.094 54.0114 144.729 52.4569C146.182 50.9753 146.905 48.3279 146.905 44.5207V31.1135C146.905 27.4945 146.273 24.8956 145.009 23.3169C143.745 21.7381 141.618 20.9488 138.634 20.9548H135.322V54.6793H135.316Z" fill="white"/>
<path d="M156.27 63.2896L168.607 12.3446H180.81L192.806 63.2896H183.709L181.296 52.5601H168.133L165.447 63.2896H156.276H156.27ZM187.148 0C186.93 1.09298 186.632 2.16167 186.255 3.21214C185.909 4.17761 185.435 5.0945 184.839 5.92638C184.268 6.72182 183.526 7.37154 182.663 7.82694C181.685 8.32486 180.591 8.56774 179.491 8.53131C178.573 8.53131 177.656 8.39772 176.775 8.14269C175.881 7.88767 175.018 7.60228 174.192 7.29867C173.365 6.99507 172.551 6.70968 171.743 6.45465C170.977 6.19962 170.175 6.07211 169.366 6.06603C168.576 6.0296 167.817 6.35749 167.3 6.94649C166.79 7.54156 166.431 8.25806 166.267 9.02922H161.916C162.092 7.9241 162.384 6.83112 162.779 5.78672C163.143 4.79089 163.672 3.86186 164.328 3.03605C164.96 2.24668 165.744 1.60304 166.638 1.13548C167.634 0.643643 168.734 0.400759 169.84 0.431119C170.764 0.431119 171.682 0.57685 172.557 0.856167C173.45 1.14156 174.313 1.43302 175.14 1.73662C175.966 2.04023 176.744 2.33776 177.486 2.61708C178.099 2.87211 178.75 3.01784 179.418 3.04213C180.214 3.05427 180.974 2.73852 181.521 2.16167C182.098 1.5666 182.493 0.819734 182.657 0.0121442H187.142L187.148 0ZM169.847 43.956H179.291L174.672 23.3533H174.538L169.853 43.956H169.847Z" fill="white"/>
<path d="M192.946 28.709C192.879 26.0008 193.274 23.3048 194.119 20.7363C194.782 18.7629 195.894 16.9595 197.358 15.4779C198.756 14.1238 200.458 13.1219 202.323 12.5511C206.462 11.3306 210.868 11.3306 215.007 12.5511C216.866 13.1219 218.568 14.1238 219.972 15.4779C221.436 16.9595 222.548 18.7568 223.211 20.7363C224.056 23.3048 224.451 26.0069 224.384 28.709V46.9192C224.451 49.6213 224.056 52.3234 223.211 54.8919C222.548 56.8653 221.436 58.6688 219.972 60.1503C218.574 61.5044 216.872 62.5063 215.007 63.0771C210.868 64.2976 206.462 64.2976 202.323 63.0771C200.464 62.5063 198.762 61.5044 197.358 60.1503C195.894 58.6688 194.782 56.8714 194.119 54.8919C193.274 52.3234 192.879 49.6274 192.946 46.9192V28.709ZM202.457 48.1822C202.457 51.0058 203.01 52.9124 204.11 53.8961C206.821 55.8695 210.497 55.8695 213.208 53.8961C214.308 52.9063 214.861 51.0058 214.861 48.1822V27.446C214.861 24.6225 214.308 22.7158 213.208 21.7321C210.497 19.7587 206.821 19.7587 204.11 21.7321C203.01 22.7219 202.457 24.6225 202.457 27.446V48.1822Z" fill="white"/>
</g>
<defs>
<clipPath id="clip0_1084_39">
<rect width="299" height="64" fill="white"/>
</clipPath>
</defs>
</svg>
