<svg width="295" height="48" viewBox="0 0 295 48" fill="none" xmlns="http://www.w3.org/2000/svg">
<g clip-path="url(#clip0_1084_11)">
<path d="M43.8508 47.1547V46.3527C51.7812 46.3527 56.4842 41.6058 66.2698 27.3868L52.6328 7.3371C50.2787 3.83111 48.9443 2.46015 44.9573 2.46015V1.65816H74.2111V2.46015C70.8968 2.46015 70.3109 3.77692 70.3109 5.44592C70.3109 6.74644 70.9998 8.00361 71.7592 9.2391L78.3065 18.993C82.646 12.6746 85.6511 8.15534 85.6511 5.36464C85.6511 3.24588 84.0238 2.48724 81.2411 2.48724V1.68526H97.997V2.48724C91.9705 2.48724 88.8515 5.80357 78.9574 19.963L93.1747 41.0964C95.632 44.6999 98.1055 46.3581 101.165 46.3581V47.1601H73.1425V46.3581C75.6648 46.3581 76.5707 45.4152 76.5707 43.8492C76.5707 42.8033 75.795 41.3836 74.7318 39.8663L66.899 28.3622C61.301 36.5988 59.7496 39.2269 59.7496 41.5733C59.7496 44.364 61.9194 46.3581 65.7165 46.3581V47.1601H43.8508V47.1547ZM256.216 20.2122C256.617 6.93068 259.118 3.37593 262.128 3.37593C265.139 3.37593 268.128 6.26959 268.014 20.2122H256.216ZM239.362 23.6965C239.362 42.8521 259.161 52.5085 276.291 44.1093L275.749 43.5674C264.526 47.3064 256.595 39.0643 256.595 23.6911V21.632H284.01C284.01 8.22578 276.275 0 262.855 0C250.162 0.0108377 239.362 10.7347 239.362 23.6965ZM158.452 6.55137V5.78731L179.379 0.856175V8.09573C184.022 4.68187 188.964 0.888688 194.247 0.888688C199.862 0.888688 203.583 3.50598 204.971 8.44796C209.75 4.95281 214.849 0.888688 220.317 0.888688C227.564 0.888688 231.654 5.22375 231.643 13.352V41.0097C231.643 44.8029 232.451 45.5236 235.147 45.5236V46.3039H212.365V45.5236C214.79 45.5236 215.69 44.3748 215.69 41.5353V11.0382C215.69 5.56514 210.059 6.275 205.281 9.78099C205.487 10.9515 205.584 12.1382 205.574 13.3303V41.0097C205.574 44.8029 206.387 45.529 209.083 45.529V46.3093H186.301V45.529C188.731 45.529 189.626 44.3802 189.626 41.5408V11.0327C189.626 5.61391 184.136 6.25333 179.395 9.65094V42.3373C179.395 44.8191 180.925 45.529 182.9 45.529V46.3093H158.49V45.529C161.815 45.529 163.431 43.1447 163.431 39.5087V11.7101C163.393 8.26372 160.014 6.55137 158.452 6.55137ZM119.678 36.0244C119.678 30.2371 122.217 24.6448 130.576 22.7374L130.636 36.5825C130.381 40.1535 127.663 42.1368 125.076 42.1043C122.049 42.0664 119.678 40.1698 119.678 36.0244ZM103.666 37.6825C103.666 45.9517 111.726 47.9783 115.491 47.9783C122.255 47.9783 128.921 44.2177 131.086 38.9776C131.932 45.1334 135.588 47.9783 142.537 47.9783C148.628 47.9783 152.572 45.4857 155.078 40.8634L154.454 40.4678C151.14 43.3127 146.86 41.1777 146.86 35.3958V14.1973C146.86 3.50598 133.131 -2.00497 120.649 2.34093L120.779 3.0779C127.793 3.12666 130.825 7.81395 130.825 16.0831L130.853 21.5019C110.571 23.9241 103.666 29.2996 103.666 37.6825ZM17.6998 20.2122C18.0958 6.93068 20.5964 3.37593 23.6069 3.37593C26.6175 3.37593 29.6063 6.26959 29.4924 20.2122H17.6998ZM0 24.4281C0 45.1876 23.6395 55.0391 41.5508 42.3427L41.0084 41.8009C27.2413 49.8099 17.2279 41.8334 17.2279 24.4227V22.3743H44.6427C44.6427 9.02777 36.9075 0.845337 23.4876 0.845337C10.8 0.850756 0 11.5313 0 24.4281ZM114.623 17.7087C118.279 17.7738 121.3 14.8693 121.365 11.2116C121.365 11.1303 121.365 11.049 121.365 10.9731C121.365 7.25581 118.344 4.23753 114.623 4.23753C110.902 4.23753 107.88 7.25581 107.88 10.9731C107.88 14.6904 110.902 17.7087 114.623 17.7087ZM288.247 48C291.908 48.0704 294.929 45.1605 295 41.5028C295 41.4215 295 41.3403 295 41.2644C295 37.5471 291.979 34.5288 288.257 34.5288C284.536 34.5288 281.515 37.5471 281.515 41.2644C281.515 44.9817 284.536 48 288.257 48H288.247Z" fill="white"/>
</g>
<defs>
<clipPath id="clip0_1084_11">
<rect width="295" height="48" fill="white"/>
</clipPath>
</defs>
</svg>
