<svg width="171" height="56" viewBox="0 0 171 56" fill="none" xmlns="http://www.w3.org/2000/svg">
<g clip-path="url(#clip0_1084_13)">
<mask id="mask0_1084_13" style="mask-type:luminance" maskUnits="userSpaceOnUse" x="0" y="0" width="171" height="56">
<path d="M0 0.393311H170.464V55.3634H0" fill="white"/>
</mask>
<g mask="url(#mask0_1084_13)">
<path fill-rule="evenodd" clip-rule="evenodd" d="M110.213 42.9624C103.182 42.9624 97.4828 37.249 97.4828 30.2008C97.4828 23.1521 103.182 17.4384 110.213 17.4384C117.244 17.4384 122.943 23.1521 122.943 30.2008C122.943 37.249 117.244 42.9624 110.213 42.9624ZM46.518 38.1112C47.9075 39.0054 48.6044 40.1711 48.5671 41.8263C48.5234 43.7494 47.2589 45.8542 43.1174 45.7598C39.2808 45.6721 35.7494 41.9659 34.2497 38.5049H24.2398V44.6233H17.1774V15.9528L22.6943 15.9489C22.7931 15.9489 22.023 18.3077 22.1037 20.6729C22.2344 24.5187 23.6304 28.3122 26.8995 30.5502C35.8365 36.669 41.2861 34.7459 46.518 38.1112ZM110.213 5.81287C105.421 5.81287 100.9 7.17308 97.1338 9.57143V6.16272H49.0028V8.95973C49.0028 8.95973 47.8258 7.77943 43.0737 6.33729C36.1918 4.24853 27.4226 5.98779 23.0191 15.2969V6.16272H0V15.9528H5.31891V44.6233H0V54.4137H33.4824V52.0973C37.2317 54.6321 41.5292 55.5541 46.9103 55.3314C56.4145 54.9381 61.275 48.0559 61.1229 40.4276C60.9484 31.6867 51.4272 28.4088 47.8695 27.185C43.4053 25.4365 39.1937 25.3495 36.0547 22.29C34.7657 21.0338 34.6595 19.7986 35.1829 18.5749C35.9107 16.8719 38.2111 15.749 40.5452 15.9528C42.5509 16.1274 46.8229 18.2688 48.6542 23.4699H60.5123V15.9528H67.3135V37.8753V44.3782H61.995V54.5619H78.8234H84.8833V50.9338V44.3782H84.1857H78.8234V37.8052V15.9528H85.8858V30.2008C85.8858 43.6689 96.7774 54.589 110.213 54.589C123.649 54.589 134.54 43.6699 134.54 30.2008C134.54 16.7316 123.649 5.81287 110.213 5.81287Z" fill="white"/>
</g>
<mask id="mask1_1084_13" style="mask-type:luminance" maskUnits="userSpaceOnUse" x="0" y="0" width="171" height="56">
<path d="M0 0.393311H170.464V55.3634H0V0.393311Z" fill="white"/>
</mask>
<g mask="url(#mask1_1084_13)">
<path fill-rule="evenodd" clip-rule="evenodd" d="M170.464 24.0819V6.16261H156.208L159.957 0.393311H151.761L148.055 6.16261H131.14V15.6905H136.371V44.4928H131.14V54.4136H170.464V36.6693H158.954V44.4928H148.055V35.795H155.554V24.825H148.055V15.6905H158.954V24.0819H170.464Z" fill="white"/>
</g>
</g>
<defs>
<clipPath id="clip0_1084_13">
<rect width="171" height="56" fill="white"/>
</clipPath>
</defs>
</svg>
