<svg width="222" height="64" viewBox="0 0 222 64" fill="none" xmlns="http://www.w3.org/2000/svg">
<g clip-path="url(#clip0_1084_25)">
<path fill-rule="evenodd" clip-rule="evenodd" d="M169.846 63.6074C173.627 64.7317 210.682 64.2382 216.289 47.5344C212.488 47.0981 201.558 50.493 197.867 51.13C195.922 51.4655 193.732 51.8204 191.881 52.5679C190.334 53.1952 188.765 54.3839 187.315 55.2336C185.551 56.2619 184.186 56.6874 182.254 57.272C180.16 57.9053 178.179 59.2789 175.996 59.9438C174.39 60.4312 172.55 60.7472 171.108 61.6431L169.847 63.6062L169.846 63.6074Z" fill="#B8B8B8"/>
<path fill-rule="evenodd" clip-rule="evenodd" d="M149.403 47.2331C151.211 57.074 169.586 64.8145 172.517 63.932C173.53 63.6306 192.12 55.585 193.606 54.9031C194.993 54.2625 196.61 53.8164 197.344 52.2921C191.364 52.0976 169.428 48.8352 164.351 48.8096C159.379 48.7878 154.066 46.6326 149.094 46.6059C149.536 46.5099 149.954 48.8668 150.191 48.964L149.402 47.2331H149.403Z" fill="#A8A8A8"/>
<path fill-rule="evenodd" clip-rule="evenodd" d="M165.285 20.3102C165.375 21.1282 165.11 21.8673 165.125 22.6732C165.15 24.1014 165.771 25.1346 166.168 26.4547C166.619 27.968 164.603 29.1933 164.891 30.7807C165.649 34.9853 165.832 39.9203 167.956 43.7674C168.788 45.2759 168.469 47.2074 169.37 48.7268C170.376 50.4298 174.963 51.2393 176.919 50.8515C179.39 50.3617 178.489 49.5923 176.086 45.1823C175.189 43.5353 171.775 32.8775 170.781 29.2419C170.421 27.9267 168.868 16.6283 165.284 19.6793V20.3077H165.285V20.3102Z" fill="#565656"/>
<path fill-rule="evenodd" clip-rule="evenodd" d="M177.04 49.4999C178.715 49.478 181.86 49.4257 183.54 49.3249C186.318 49.1559 196.507 47.662 198.426 45.9068C208.757 36.4488 198.5 15.0397 198.309 12.1321C201.761 12.0592 206.352 11.0029 209.619 12.1431C209.64 13.2698 210.298 13.9712 210.612 14.9606C211.159 16.6879 210.769 18.5221 210.879 20.3065C211.023 22.6756 211.214 25.1371 211.007 27.528C210.721 30.8476 210.807 36.4074 208.557 39.1703C207.142 40.9012 205.7 42.3429 204.937 44.5806C204.445 46.0308 204.273 46.9704 204.273 48.5056C204.276 51.1287 204.073 51.1007 206.628 51.3256C207.422 51.3961 210.551 51.2417 210.785 51.5067C211.733 52.591 210.437 52.8086 209.688 53.0954C206.966 54.1238 203.517 53.6837 200.654 53.6862C195.574 53.6959 177.933 51.4848 176.196 51.1822C175.228 51.0169 176.981 51.0108 176.196 50.623L177.038 49.4975L177.04 49.4999Z" fill="#808080"/>
<path fill-rule="evenodd" clip-rule="evenodd" d="M217.324 11.652C215.114 11.652 212.902 11.635 210.723 11.8149C207.956 12.0398 208.995 10.7793 209.281 13.0049C212.346 37.0931 198.545 49.8877 199.087 51.7997C200.032 55.1072 211.117 52.7454 211.117 52.7454C213.724 53.1453 216.646 49.1766 217.943 46.9376C220.222 43.003 221.514 38.1639 221.888 33.5972C222.737 23.2518 218.475 11.9948 217.326 11.8101V11.652H217.324Z" fill="#969696"/>
<path fill-rule="evenodd" clip-rule="evenodd" d="M165.755 5.51125C165.055 8.51118 164.6 11.7335 165.082 14.8234C165.362 16.6236 164.592 18.0081 165.284 19.6807C165.979 21.3569 165.397 23.8208 167.485 23.2227C169.121 22.7547 173.299 16.6893 185.409 13.541C189.286 12.5334 196.026 13.4705 199.946 12.5625C199.368 10.3284 197.289 10.2324 195.435 8.68135C191.625 5.49424 186.487 4.98007 181.631 4.88647C177.967 4.81719 174.251 4.53032 170.611 4.83907C169.005 4.97521 167.478 5.49059 165.913 5.66806L165.754 5.51004L165.755 5.51125Z" fill="#646464"/>
<path fill-rule="evenodd" clip-rule="evenodd" d="M193.584 0.472742C199.22 0.472742 207.14 -0.0426424 211.64 3.90904C214.191 6.15291 216.592 8.58396 217.307 11.8148C215.376 12.5843 210.406 13.2479 208.402 12.3193C207.422 11.861 207.129 10.7367 206.324 9.88336C205.669 9.1893 205.024 9.06167 204.276 8.53169C203.4 7.91178 202.947 7.12898 202.109 6.49812C200.731 5.47343 198.876 5.12335 197.492 4.07314C196.112 3.02778 194.654 2.32764 193.271 1.25797L193.584 0.471526V0.472742Z" fill="#E8E8E8"/>
<path fill-rule="evenodd" clip-rule="evenodd" d="M157.584 6.14077C163.048 6.15049 188.536 6.2684 197.2 11.5815C200.567 13.6467 205.536 12.9878 209.297 12.4567C209.139 4.30411 204.989 1.13158 203.673 0.794874C200.295 -0.0766598 185.114 0.0023495 181.478 0.0023495C172.146 0.00721162 158.366 2.44313 152.233 7.40249L157.582 6.14077H157.584Z" fill="#727272"/>
<path fill-rule="evenodd" clip-rule="evenodd" d="M167.17 6.14087C162.883 6.14087 156.495 5.35078 152.63 7.16434C145.084 10.7064 145.964 41.1542 147.913 44.5224C148.491 45.5167 149.127 46.8939 149.878 47.7496C150.936 48.9603 152.317 48.8898 154.039 49.1256C158.459 49.7236 163.147 50.143 167.611 49.9072C168.682 49.8525 169.825 50.0397 170.333 49.0053C170.858 47.9271 170.375 45.197 169.998 44.1334C169.456 42.6152 169.065 41.5589 168.758 39.8779C168.455 38.2102 167.882 36.6129 167.516 34.955C166.769 31.5612 166.929 27.8089 166.707 24.2802C166.32 18.1102 166.39 11.6411 167.172 5.51001V6.13844H167.17V6.14087Z" fill="#888888"/>
<path fill-rule="evenodd" clip-rule="evenodd" d="M18.2794 60.4908C17.2877 60.7594 16.2814 60.9697 15.2642 61.1217C14.1814 61.2821 13.2128 61.3648 12.3594 61.3648C9.39521 61.3648 7.14473 60.5273 5.60678 58.8523C4.07004 57.1749 3.30167 54.4885 3.30167 50.7921V34.5636H0V30.2533H3.30289V23.405L8.19592 21.5161V30.2533H18.2782V34.5636H8.19592V48.4838C8.19592 50.0883 8.23234 51.3403 8.30396 52.2471C8.37679 53.149 8.61227 53.989 9.01284 54.7754C9.39399 55.5047 9.9208 56.0383 10.5921 56.3775C11.2645 56.7129 12.283 56.8819 13.6461 56.8819C14.4448 56.8819 15.2751 56.7555 16.1381 56.5063C17.0012 56.2535 17.6227 56.0444 18.0051 55.8791H18.277V60.492H18.2782L18.2794 60.4908ZM47.9762 46.0759H26.5736C26.5736 47.949 26.8407 49.5778 27.3784 50.9659C27.9149 52.3553 28.6469 53.4942 29.5767 54.384C30.4944 55.264 31.5929 55.9326 32.7946 56.3446C34.0303 56.781 35.3935 56.9974 36.8865 56.9974C38.8687 56.9974 40.8607 56.5878 42.8599 55.7661C44.8591 54.9444 46.289 54.1348 47.1435 53.3362H47.3875V58.9216C45.7561 59.6472 44.0749 60.2574 42.3573 60.7473C40.596 61.2457 38.774 61.4948 36.9448 61.4863C32.127 61.4863 28.3689 60.1128 25.6705 57.3766C22.9721 54.6368 21.6211 50.7447 21.6211 45.7039C21.6211 40.6631 22.9163 36.7552 25.5079 33.8246C28.0994 30.8939 31.5055 29.4256 35.7248 29.4256C39.6529 29.4256 42.6766 30.6289 44.796 33.0357C46.9153 35.4412 47.975 38.8581 47.975 43.2874V46.0734H47.9762V46.0759ZM43.2592 42.1181C43.2398 39.433 42.5928 37.3544 41.3171 35.8824C40.0389 34.4117 38.0991 33.675 35.4918 33.675C32.8844 33.675 30.7723 34.4834 29.2138 36.1C27.6552 37.7155 26.7751 39.7211 26.5736 42.1157H43.2604V42.1169L43.2592 42.1181ZM72.9573 35.863H72.6866C71.9619 35.6758 71.2591 35.5409 70.5818 35.4582C69.7746 35.3658 68.9625 35.3233 68.1492 35.3306C66.6453 35.3306 65.1959 35.6843 63.8012 36.3832C62.347 37.1247 60.9875 38.0376 59.7518 39.1048V60.7789H54.8588V30.2545H59.7518V34.7629C61.6903 33.1244 63.397 31.9636 64.8731 31.2792C66.2884 30.6095 67.8336 30.2606 69.3995 30.2545C70.2492 30.2545 70.8671 30.2764 71.2458 30.3226C71.6269 30.3688 72.1962 30.4551 72.9585 30.5827V35.8642H72.9573V35.863ZM95.1404 35.863H94.8697C94.1766 35.6819 93.4738 35.547 92.7637 35.4582C91.9565 35.3658 91.1444 35.3233 90.3312 35.3306C88.8272 35.3306 87.3779 35.6843 85.9831 36.3832C84.5289 37.1235 83.1706 38.0376 81.9349 39.1048V60.7789H77.0419V30.2545H81.9349V34.7629C83.8735 33.1244 85.5801 31.9636 87.0562 31.2792C88.4715 30.6107 90.0155 30.2606 91.5814 30.2545C92.4335 30.2545 93.049 30.2764 93.4277 30.3226C93.8088 30.3688 94.3781 30.4551 95.1404 30.5827V35.8642V35.863ZM120.868 55.3443L115.994 57.7826C115.561 58.0901 114.897 58.2567 114.161 58.811C113.499 59.3227 112.785 59.7651 112.032 60.1322C111.14 60.5795 110.203 60.9308 109.238 61.1825C108.189 61.4632 106.96 61.6055 105.55 61.6055C102.945 61.6055 100.739 60.6975 98.9325 58.8802C97.1239 57.0642 96.2195 54.7487 96.2195 51.9311C96.2195 49.6216 96.6881 47.7569 97.63 46.3263C98.5696 44.9017 99.9084 43.7797 101.644 42.9605C103.398 42.1436 105.509 41.5906 107.978 41.3001C110.615 40.995 113.261 40.7762 115.911 40.6437V39.8463C115.911 38.6696 115.716 37.696 115.329 36.9254C114.957 36.173 114.376 35.5421 113.659 35.1082C112.969 34.6851 112.139 34.4019 111.172 34.2536C110.17 34.1053 109.158 34.0324 108.146 34.0348C106.878 34.0348 105.458 34.216 103.884 34.5806C102.309 34.9428 100.689 35.4692 99.026 36.1608H98.7541V30.9425C99.7142 30.6703 101.093 30.3688 102.887 30.0406C104.636 29.7173 106.411 29.552 108.189 29.5483C110.237 29.5483 112.018 29.727 113.531 30.0832C115.048 30.4381 116.357 31.0422 117.461 31.8979C118.557 32.7464 119.414 33.8659 119.948 35.147C120.52 36.4744 120.806 38.1214 120.806 40.0882L120.868 55.3467V55.3443ZM115.912 53.2925V44.7765C114.435 44.8701 112.695 45.005 110.697 45.1897C108.697 45.3709 107.113 45.6358 105.94 45.9847C104.553 46.4041 103.431 47.0568 102.574 47.9429C101.72 48.8278 101.291 50.0458 101.291 51.5968C101.291 53.3484 101.785 54.666 102.777 55.5533C103.767 56.4395 105.291 56.8807 107.344 56.8807C109.039 56.8807 110.59 56.5294 112.006 55.8281C113.4 55.1364 114.711 54.2855 115.912 53.2925Z" fill="white"/>
</g>
<defs>
<clipPath id="clip0_1084_25">
<rect width="222" height="64" fill="white"/>
</clipPath>
</defs>
</svg>
