<svg preserveAspectRatio="none" width="100%" height="100%" overflow="visible" style="display: block;" viewBox="0 0 16 16" fill="none" xmlns="http://www.w3.org/2000/svg">
<g id="&#60;i class=&#34;fi fi-rr-graduation-cap&#34;&#62;&#60;/i&#62;" clip-path="url(#clip0_262_51)">
<path id="Vector" d="M14.7047 3.48666L9.78866 1.14466C8.70653 0.498281 7.35966 0.486812 6.26666 1.11466L1.29534 3.48666C1.27669 3.496 1.25734 3.506 1.23934 3.51666C0.0595938 4.19122 -0.349969 5.69444 0.324594 6.87419C0.55325 7.27412 0.889594 7.60181 1.29534 7.82L2.66669 8.47334V11.74C2.6675 13.2007 3.61797 14.4912 5.01269 14.9253C5.98328 15.2061 6.98969 15.3436 8.00003 15.3333C9.01022 15.3447 10.0166 15.2083 10.9874 14.9287C12.3821 14.4946 13.3326 13.2041 13.3334 11.7433V8.472L14.6667 7.83466V13.3333C14.6667 13.7015 14.9652 14 15.3334 14C15.7016 14 16 13.7015 16 13.3333V5.33331C16.0045 4.55047 15.3863 3.82728 14.7047 3.48666ZM12 11.7433C12.0003 12.6171 11.4335 13.3899 10.6 13.652C9.75481 13.8935 8.87897 14.0107 8 14C7.12103 14.0107 6.24519 13.8935 5.4 13.652C4.56653 13.3899 3.99966 12.6171 4 11.7433V9.10869L6.21134 10.162C6.75697 10.486 7.38013 10.6563 8.01469 10.6547C8.61869 10.659 9.21253 10.4991 9.73269 10.192L12 9.10866V11.7433ZM14.1333 6.61666L9.10534 9.01666C8.40428 9.42487 7.53531 9.41331 6.84534 8.98666L1.926 6.64666C1.37766 6.35097 1.17284 5.66675 1.46853 5.11844C1.56853 4.933 1.71847 4.77928 1.90134 4.67466L6.898 2.288C7.59928 1.88069 8.46778 1.89222 9.158 2.318L14.074 4.66C14.4355 4.86075 14.6617 5.23984 14.6667 5.65334C14.6673 6.04503 14.4656 6.40928 14.1333 6.61666Z" fill="var(--fill-0, #0A84FF)"/>
</g>
<defs>
<clipPath id="clip0_262_51">
<rect width="16" height="16" fill="white"/>
</clipPath>
</defs>
</svg>
