<svg width="88" height="88" viewBox="0 0 88 88" fill="none" xmlns="http://www.w3.org/2000/svg">
<rect width="88" height="88" rx="16" fill="#171717"/>
<path d="M43.96 67.9458L42.708 67.3198C38.32 65.1258 24 56.9378 24 43.7198V30.2698C24 28.1118 25.374 26.2058 27.416 25.5258L44 20.0278L60.574 25.5238C62.624 26.2038 64 28.1098 64 30.2698V43.7218C64 58.7198 49.656 65.6558 45.26 67.4258L43.96 67.9478V67.9458ZM28.046 27.4238C26.822 27.8298 26 28.9738 26 30.2678V43.7178C26 55.7898 39.472 63.4658 43.602 65.5298L44.05 65.7538L44.514 65.5678C48.616 63.9178 62 57.4618 62 43.7198V30.2678C62 28.9738 61.174 27.8278 59.944 27.4198L44 22.1338L28.046 27.4238Z" fill="#FF5E00"/>
</svg>
