<svg width="48" height="48" viewBox="0 0 48 48" fill="none" xmlns="http://www.w3.org/2000/svg">
<g clip-path="url(#clip0_19_163)">
<path d="M32.4847 32.4849C37.1708 27.7988 37.1708 20.2012 32.4847 15.5151C27.7986 10.829 20.201 10.829 15.5149 15.5151C10.8287 20.2012 10.8287 27.7988 15.5149 32.4849C20.201 37.171 27.7986 37.171 32.4847 32.4849Z" fill="white"/>
<path d="M35.9995 11.9995C42.6264 11.9995 47.999 17.3721 47.999 23.999C47.999 30.6259 42.6264 35.9986 35.9995 35.9986" fill="white"/>
<path d="M48 11.9995H35.9995V0C42.6274 0 48 5.37263 48 11.9995Z" fill="white"/>
<path d="M48 35.9995H35.9995V47.999C42.6264 47.999 48 42.6264 48 35.9995Z" fill="white"/>
<path d="M0 11.9995H12.0005V0C5.37263 0 0 5.37263 0 11.9995Z" fill="white"/>
<path d="M0 35.9995H12.0005V47.999C5.37263 47.999 0 42.6274 0 35.9995Z" fill="white"/>
<path d="M35.9995 35.9995C35.9995 42.6264 30.6269 47.999 24 47.999C17.3731 47.999 12.0005 42.6264 12.0005 35.9995" fill="white"/>
<path d="M12.0005 35.9995C5.37263 35.9995 0 30.6269 0 24C0 17.3731 5.37263 12.0005 11.9995 12.0005" fill="white"/>
<path d="M12.0005 11.9995C12.0005 5.37263 17.3722 0 24 0C30.6269 0 35.9995 5.37263 35.9995 11.9995" fill="white"/>
</g>
<defs>
<clipPath id="clip0_19_163">
<rect width="48" height="48" fill="white"/>
</clipPath>
</defs>
</svg>
