<svg preserveAspectRatio="none" width="100%" height="100%" overflow="visible" style="display: block;" viewBox="0 0 24 24" fill="none" xmlns="http://www.w3.org/2000/svg">
<g id="population-globe 1" clip-path="url(#clip0_265_110)">
<path id="Vector" d="M3 3C3 1.895 3.895 1 5 1C6.105 1 7 1.895 7 3C7 4.105 6.105 5 5 5C3.895 5 3 4.105 3 3ZM12 5C13.381 5 14.5 3.881 14.5 2.5C14.5 1.119 13.381 0 12 0C10.619 0 9.5 1.119 9.5 2.5C9.5 3.881 10.619 5 12 5ZM19 5C20.105 5 21 4.105 21 3C21 1.895 20.105 1 19 1C17.895 1 17 1.895 17 3C17 4.105 17.895 5 19 5ZM12.001 24C5.749 24 0.612 19.309 0.051 13.09C0.002 12.54 0.407 12.054 0.957 12.004C1.52 11.956 1.994 12.36 2.043 12.91C2.108 13.635 2.256 14.332 2.462 15H5.902C5.743 14.384 5.619 13.751 5.555 13.097C5.501 12.547 5.904 12.058 6.453 12.005C7.006 11.955 7.492 12.354 7.545 12.903C7.615 13.625 7.772 14.325 7.979 15H16.023C16.23 14.325 16.387 13.625 16.457 12.903C16.51 12.353 16.997 11.954 17.549 12.005C18.099 12.058 18.501 12.547 18.447 13.097C18.384 13.751 18.259 14.384 18.1 15H21.54C21.747 14.332 21.894 13.635 21.959 12.91C22.009 12.36 22.485 11.954 23.045 12.004C23.595 12.054 24.001 12.54 23.951 13.09C23.39 19.309 18.253 23.999 12.001 24ZM8.778 17C9.801 19.079 11.187 20.723 11.999 21.586C12.812 20.723 14.197 19.079 15.22 17H8.778ZM9.405 21.657C8.461 20.488 7.368 18.888 6.576 17H3.332C4.64 19.283 6.812 20.972 9.405 21.657ZM20.668 17H17.424C16.632 18.889 15.539 20.488 14.595 21.657C17.188 20.972 19.36 19.283 20.668 17ZM8.649 9.937C9.167 10.13 9.743 9.87 9.937 9.351C10.24 8.543 11.069 8 12 8C12.931 8 13.761 8.543 14.063 9.351C14.256 9.875 14.847 10.128 15.351 9.937C15.868 9.743 16.13 9.166 15.936 8.65C15.342 7.065 13.76 6.001 11.999 6.001C10.238 6.001 8.656 7.065 8.062 8.65C7.868 9.167 8.13 9.743 8.647 9.937H8.649ZM18.352 6.048C17.806 6.13 17.429 6.639 17.511 7.186C17.593 7.732 18.1 8.101 18.648 8.027C19.659 7.877 20.722 8.44 21.064 9.351C21.257 9.875 21.848 10.128 22.352 9.937C22.869 9.743 23.131 9.166 22.937 8.65C22.343 7.065 20.761 6.001 19 6.001C18.78 6.001 18.563 6.017 18.352 6.048ZM1.649 9.937C2.153 10.129 2.743 9.875 2.937 9.351C3.278 8.439 4.342 7.872 5.353 8.027C5.899 8.102 6.408 7.732 6.49 7.186C6.572 6.639 6.196 6.13 5.649 6.048C5.438 6.017 5.221 6 5.001 6C3.24 6 1.658 7.064 1.064 8.649C0.87 9.166 1.132 9.742 1.649 9.936V9.937Z" fill="var(--fill-0, white)"/>
</g>
<defs>
<clipPath id="clip0_265_110">
<rect width="24" height="24" fill="white"/>
</clipPath>
</defs>
</svg>
