<svg width="49" height="48" viewBox="0 0 49 48" fill="none" xmlns="http://www.w3.org/2000/svg">
<g clip-path="url(#clip0_19_220)">
<path d="M16.0692 0V32.0006C7.1934 32.0006 0 24.8367 0 16.0011C0 7.16558 7.1934 0 16.0692 0Z" fill="white"/>
<path d="M0.754761 32.0005H32.8949C32.8949 40.8378 25.6997 47.9999 16.8257 47.9999C7.95158 47.9999 0.754761 40.8378 0.754761 32.0005Z" fill="white"/>
<path d="M32.9308 48.0001V15.9995C41.8066 15.9995 49 23.1634 49 31.9989C49 40.8345 41.8066 48.0001 32.9308 48.0001Z" fill="white"/>
<path d="M48.2453 15.9994H16.1052C16.1052 7.16217 23.3003 0 32.1744 0C41.0484 0 48.2453 7.16217 48.2453 15.9994Z" fill="white"/>
</g>
<defs>
<clipPath id="clip0_19_220">
<rect width="49" height="48" fill="white"/>
</clipPath>
</defs>
</svg>
