<svg width="48" height="48" viewBox="0 0 48 48" fill="none" xmlns="http://www.w3.org/2000/svg">
<g clip-path="url(#clip0_19_239)">
<path d="M48 11.9996C48 18.4652 42.8904 23.7339 36.4867 23.9885V11.5134H24.0115C24.2661 5.11135 29.5366 0 36.0005 0C42.4643 0 48 5.37302 48 11.9996Z" fill="white"/>
<path d="M23.9903 11.5134H11.5151V23.9885C5.11135 23.7339 0 18.4652 0 11.9996C0 5.53391 5.37301 0 12.0013 0C18.6296 0 23.7357 5.11135 23.9903 11.5134Z" fill="white"/>
<path d="M48 36.0005C48 42.627 42.6288 48 36.0005 48C29.3721 48 24.2661 42.8887 24.0115 36.4867H36.4867V24.0098C42.8904 24.2644 48 29.5348 48 36.0005Z" fill="white"/>
<path d="M23.9903 36.4867C23.7357 42.8887 18.4652 48 12.0013 48C5.53744 48 0 42.627 0 36.0005C0 29.3739 5.11135 24.2644 11.5151 24.0098V36.4867H23.9903Z" fill="white"/>
<path d="M24.0115 11.5132C24.0044 11.6741 24.0009 11.8367 24.0009 11.9994C24.0009 11.8367 23.9973 11.6741 23.9903 11.5132H24.0115Z" fill="white"/>
<path d="M11.5151 23.9883C11.676 23.9954 11.8387 23.9989 12.0013 23.9989C11.8387 23.9989 11.676 24.0024 11.5151 24.0095V23.9883Z" fill="white"/>
<path d="M23.9903 36.4867C23.9973 36.3258 24.0009 36.1631 24.0009 36.0005C24.0009 36.1631 24.0044 36.3258 24.0115 36.4867H23.9903Z" fill="white"/>
<path d="M24.0009 36.0004C24.0009 29.3721 18.6279 23.9991 12.0013 23.9991C18.6279 23.9991 24.0009 18.6278 24.0009 11.9995C24.0009 18.6278 29.3739 23.9991 36.0004 23.9991C29.3739 23.9991 24.0009 29.3721 24.0009 36.0004Z" fill="white"/>
<path d="M36.4866 23.9883V24.0095C36.3257 24.0024 36.1631 23.9989 36.0004 23.9989C36.1631 23.9989 36.3257 23.9954 36.4866 23.9883Z" fill="white"/>
<path d="M36.0004 23.9991C29.3739 23.9991 24.0009 29.3721 24.0009 36.0004C24.0009 29.3721 18.6279 23.9991 12.0013 23.9991C18.6279 23.9991 24.0009 18.6278 24.0009 11.9995C24.0009 18.6278 29.3739 23.9991 36.0004 23.9991Z" fill="white"/>
</g>
<defs>
<clipPath id="clip0_19_239">
<rect width="48" height="48" fill="white"/>
</clipPath>
</defs>
</svg>
