<svg width="24" height="24" viewBox="0 0 24 24" fill="none" xmlns="http://www.w3.org/2000/svg">
<path d="M22.596 5.44936L18.552 1.40435C17.652 0.504126 16.428 0 15.156 0H8.844C7.572 0 6.348 0.504126 5.448 1.40435L1.404 5.44936C0.504 6.34959 0 7.56789 0 8.84021V15.1538C0 16.4261 0.504 17.6504 1.404 18.5506L5.448 22.5956C6.348 23.4959 7.572 24 8.844 24H15.156C16.428 24 17.652 23.4959 18.552 22.5956L22.596 18.5506C23.496 17.6504 24 16.4261 24 15.1538V8.84021C24 7.56789 23.496 6.34359 22.596 5.44336V5.44936ZM19.116 19.1148C19.068 19.1268 18.978 19.1448 18.828 19.1448C17.64 19.1448 15.93 18.2266 15.246 17.8305C14.682 17.5004 14.112 17.1283 13.536 16.7142C14.088 16.2341 14.634 15.7239 15.18 15.1838C15.726 14.6437 16.23 14.0915 16.71 13.5394C17.346 14.4216 17.886 15.2978 18.3 16.126C19.194 17.9145 19.182 18.8627 19.116 19.1148ZM13.824 13.8215C13.23 14.4156 12.618 14.9797 12 15.5019C11.382 14.9797 10.77 14.4216 10.176 13.8215C9.582 13.2213 9.018 12.6152 8.496 11.997C9.018 11.3788 9.582 10.7667 10.176 10.1725C10.77 9.57839 11.382 9.01425 12 8.49212C12.618 9.01425 13.23 9.57239 13.824 10.1725C14.418 10.7667 14.982 11.3788 15.504 11.997C14.982 12.6152 14.418 13.2273 13.824 13.8215ZM4.884 19.1148C4.818 18.8627 4.806 17.9145 5.7 16.126C6.114 15.2918 6.654 14.4216 7.29 13.5394C7.77 14.0915 8.28 14.6377 8.82 15.1838C9.36 15.7299 9.912 16.2341 10.464 16.7142C9.888 17.1283 9.318 17.5064 8.754 17.8305C6.708 19.0188 5.568 19.1448 5.172 19.1448C4.776 19.1448 4.932 19.1268 4.884 19.1148ZM4.884 4.87922C4.932 4.86722 5.022 4.84921 5.172 4.84921C6.36 4.84921 8.07 5.76744 8.754 6.16354C9.318 6.49362 9.888 6.86572 10.464 7.27982C9.912 7.75994 9.366 8.27007 8.82 8.8102C8.274 9.35034 7.77 9.90248 7.29 10.4546C6.654 9.57239 6.114 8.69617 5.7 7.86797C4.806 6.07952 4.818 5.13128 4.884 4.87922ZM15.18 8.8162C14.64 8.27607 14.088 7.76594 13.536 7.28582C14.112 6.87172 14.682 6.49362 15.246 6.16954C17.292 4.98125 18.432 4.85521 18.828 4.85521C19.224 4.85521 19.068 4.87322 19.116 4.88522C19.182 5.13728 19.194 6.08552 18.3 7.87397C17.886 8.70818 17.346 9.57839 16.71 10.4606C16.23 9.90848 15.72 9.36234 15.18 8.8162ZM8.844 1.91448H15.156C15.924 1.91448 16.65 2.21455 17.19 2.76069L17.538 3.10878C15.966 3.49887 14.016 4.51913 12 6.03751C9.984 4.51913 8.034 3.49287 6.462 3.10878L6.81 2.76069C7.356 2.21455 8.076 1.91448 8.844 1.91448ZM1.92 15.1538V8.84021C1.92 8.07202 2.22 7.34584 2.766 6.8057L3.114 6.45761C3.504 8.03001 4.524 9.98049 6.042 11.997C4.524 14.0135 3.498 15.964 3.114 17.5364L2.766 17.1883C2.22 16.6422 1.92 15.922 1.92 15.1538ZM15.156 22.0795H8.844C8.076 22.0795 7.35 21.7794 6.81 21.2333L6.462 20.8852C8.034 20.4951 9.984 19.4749 12 17.9565C14.016 19.4749 15.966 20.5011 17.538 20.8852L17.19 21.2333C16.644 21.7794 15.924 22.0795 15.156 22.0795ZM22.08 15.1538C22.08 15.922 21.78 16.6482 21.234 17.1883L20.886 17.5364C20.496 15.964 19.476 14.0135 17.958 11.997C19.476 9.98049 20.502 8.03001 20.886 6.45761L21.234 6.8057C21.78 7.35184 22.08 8.07202 22.08 8.84021V15.1538Z" fill="white"/>
</svg>
