<svg width="31" height="32" viewBox="0 0 31 32" fill="none" xmlns="http://www.w3.org/2000/svg">
<path fill-rule="evenodd" clip-rule="evenodd" d="M0 0L0 32L30.2294 32L30.2294 0L0 0ZM17.011 27.6483L15.1333 28.7721L13.2482 27.6634L13.2482 23.2666L15.1184 22.173L17.011 23.2666L17.011 27.6483ZM26.0045 11.9538V11.9387L18.911 16.1018L25.9971 20.2649L25.9971 22.4897L24.0672 23.5607L15.1333 18.3267L6.0876 23.6286L4.22481 22.4747L4.22481 20.2951L11.3556 16.1169L4.22481 11.9387L4.22481 9.73651L6.1174 8.62786L13.2482 12.806L13.2482 4.37427L15.1408 3.26561L17.0035 4.35918H17.0184L17.0184 12.8287L24.1492 8.64295L26.012 9.73651L26.012 11.984L26.0045 11.9538Z" fill="#2E2E2E"/>
</svg>
