<svg width="559" height="256" viewBox="0 0 559 256" fill="none" xmlns="http://www.w3.org/2000/svg">
<g clip-path="url(#clip0_383_1502)">
<path d="M549.29 79.8865C542.865 63.9651 533.368 49.7196 521.218 37.569C508.927 25.4184 494.682 15.9214 478.9 9.497C463.398 3.21222 447.197 0 430.577 0C413.957 0 397.757 3.21222 382.394 9.35734C366.472 15.7818 352.227 25.2788 340.076 37.4293L279.324 98.1822L218.571 37.4293C206.28 25.2788 192.035 15.7818 176.253 9.35734C160.89 3.21222 144.69 0 128.07 0C111.45 0 95.2493 3.21222 79.8865 9.35734C63.9651 15.7818 49.7196 25.2788 37.569 37.4293C25.4184 49.7196 15.9214 63.9651 9.497 79.7469C3.21222 95.2493 0 111.45 0 128.07C0 144.69 3.21222 160.89 9.35734 176.253C15.7818 192.175 25.2788 206.42 37.4294 218.571C49.5799 230.721 63.9651 240.218 79.7469 246.643C95.1097 252.927 111.31 256 127.93 256C144.55 256 160.751 252.788 176.113 246.643C192.035 240.218 206.28 230.721 218.431 218.571L279.184 157.818L293.848 172.482L339.937 218.571C352.227 230.721 366.472 240.218 382.254 246.643C397.617 252.927 413.818 256 430.438 256C447.057 256 463.258 252.788 478.621 246.643C494.542 240.218 508.788 230.721 520.938 218.571C533.089 206.28 542.586 192.035 549.01 176.253C555.295 160.89 558.368 144.69 558.368 128.07C558.368 111.45 555.156 95.2493 549.01 79.8865H549.29ZM516.33 128.07C516.33 150.974 507.391 172.622 491.19 188.823C474.99 205.023 453.482 213.962 430.438 213.962C407.393 213.962 385.885 205.023 369.685 188.823L308.932 128.07L369.685 67.317C385.885 51.1162 407.393 42.1779 430.438 42.1779C453.482 42.1779 474.99 51.1162 491.19 67.317C507.391 83.5177 516.33 105.026 516.33 128.07ZM249.436 128.07L188.683 188.823C172.482 205.023 150.974 213.962 127.93 213.962C105.026 213.962 83.3781 205.023 67.1773 188.823C50.9765 172.622 42.0382 151.114 42.0382 128.07C42.0382 105.026 50.9765 83.5177 67.1773 67.317C83.3781 51.1162 104.886 42.1779 127.93 42.1779C150.835 42.1779 172.482 51.1162 188.683 67.317L249.296 127.93V128.07H249.436Z" fill="white"/>
</g>
<defs>
<clipPath id="clip0_383_1502">
<rect width="558.342" height="256" fill="white"/>
</clipPath>
</defs>
</svg>
