<svg width="191" height="40" viewBox="0 0 191 40" fill="none" xmlns="http://www.w3.org/2000/svg">
<g clip-path="url(#clip0_210_163)">
<path d="M112.629 6.77867C114.129 6.6293 115.707 6.66158 116.577 8.13489C116.934 8.74056 117.031 9.46521 116.848 10.1442C116.237 12.4491 114.383 12.0052 112.684 12.3128C109.214 12.9412 107.123 15.6178 106.294 18.7343C107.356 18.7281 108.418 18.7309 109.481 18.7423C109.529 18.6106 109.583 18.4811 109.643 18.3541C111.611 14.1367 117.32 14.3644 118.827 18.5926C119.267 19.828 119.201 21.1883 118.643 22.3749C118.075 23.5686 117.053 24.482 115.806 24.9086C114.576 25.3377 113.226 25.258 112.055 24.6874C110.792 24.0749 109.974 23.0569 109.517 21.7429C108.467 21.7671 107.353 21.7489 106.298 21.7489C106.713 23.6278 107.676 25.3327 109.178 26.5494C110.846 27.8764 112.967 28.4901 115.082 28.2574C116.528 28.1004 117.959 27.5095 119.098 26.6146C123.168 23.4178 121.857 19.7635 122.407 15.8668C122.684 13.9598 123.463 12.1619 124.665 10.6599C126.425 8.48307 128.98 7.10563 131.759 6.83575C134.532 6.53675 137.308 7.3621 139.472 9.12847C141.204 10.5416 142.953 13.0948 143.183 15.3496C143.23 15.5155 143.267 15.6841 143.293 15.8544C143.427 16.73 143.41 18.3543 143.41 19.2492L143.417 23.9423C143.419 26.3811 143.471 28.9777 143.346 31.4074C143.323 31.8677 143.143 32.331 142.868 32.705C142.432 33.2875 141.785 33.6738 141.068 33.7798C139.572 33.9926 138.123 32.8281 138.029 31.3089C137.965 30.2814 137.984 29.2761 137.985 28.2467L138.001 20.9046C138.006 19.5238 138.092 17.9263 137.916 16.5774C137.546 13.7252 134.846 11.8174 132.067 12.2356C131.118 12.3859 130.231 12.7999 129.504 13.4305C126.793 15.7652 128.026 19.0511 127.526 22.3975C127.181 24.5721 126.312 26.6292 124.996 28.3904C122.852 31.2612 119.659 33.1578 116.121 33.663C112.567 34.1692 108.958 33.2403 106.085 31.0795C103.248 28.943 101.365 25.77 100.841 22.248C100.306 18.6289 101.247 14.9458 103.452 12.0334C105.754 8.97159 108.889 7.29953 112.629 6.77867Z" fill="white"/>
<path d="M79.9172 6.76846C79.9681 6.76335 80.0192 6.75975 80.0702 6.75766C81.2889 6.70709 82.7864 7.6619 82.8641 8.90485C83.1621 13.6708 82.9579 18.5981 82.9915 23.37C83.0114 26.2092 85.4455 28.4767 88.204 28.3889C89.2517 28.3616 90.2672 28.0195 91.1192 27.4063C93.8244 25.434 93.2618 21.9503 93.2529 18.8612L93.2307 11.9808C93.2264 10.7817 92.9796 8.60041 94.0511 7.55879C95.7563 5.90133 98.5468 7.00244 98.6538 9.46581C98.7186 10.9561 98.6702 12.8362 98.6613 14.473L98.6679 20.483C98.6691 21.958 98.7352 23.6869 98.4778 25.1167C98.2554 26.3578 97.8119 27.5486 97.1688 28.6315C95.7367 31.0535 93.3994 32.7992 90.6781 33.4796C87.9565 34.1607 85.0771 33.7304 82.6709 32.2827C80.2666 30.8344 78.5367 28.4824 77.865 25.7484C77.4091 23.9146 77.5055 21.819 77.508 19.9206L77.5185 14.3228C77.5207 12.7312 77.4393 11.0942 77.5274 9.51195C77.6117 7.99712 78.502 7.10063 79.9172 6.76846Z" fill="white"/>
<path d="M56.47 6.77846C56.6291 6.7462 57.8679 6.72862 58.0829 6.75222C60.2359 6.98852 64.5933 6.11546 66.2153 7.541C67.7289 8.87134 66.9304 11.8196 64.8699 12.093C62.731 12.3768 60.023 12.1079 57.8142 12.1396C56.4092 12.1514 55.922 12.301 55.9298 13.8134C55.9367 15.1429 55.9415 16.5009 55.9528 17.8375C56.0938 17.8301 56.2349 17.8251 56.376 17.8223C58.158 17.7949 61.6597 17.4005 62.8737 18.5994C63.3935 19.1111 63.6863 19.8115 63.6859 20.5426C63.6892 21.2528 63.4115 21.9351 62.9137 22.4394C61.841 23.5086 59.9943 23.2549 58.5328 23.242L55.9451 23.2301L55.9617 28.3486C55.9643 29.3089 56.0097 30.2897 55.8995 31.2437C55.6337 33.5441 53.3847 34.594 51.5379 33.1851C51.0158 32.7946 50.6707 32.2111 50.5791 31.5638C50.4626 30.6887 50.5065 28.8974 50.5058 27.9523L50.5029 21.6424L50.5046 15.6345C50.5062 13.5036 50.3036 11.5597 51.54 9.6895C52.7625 7.84052 54.341 7.05697 56.47 6.77846Z" fill="white"/>
<path d="M33.7242 3.77448C34.886 3.63396 36.52 4.73516 36.6961 5.88428C36.9098 7.27771 36.8357 8.89038 36.836 10.3043L36.8379 17.7663V28.3061C36.8377 29.9544 36.842 31.5998 36.8268 33.2503C36.8169 34.3389 36.6981 35.2095 35.8118 35.9684C35.2762 36.427 34.8236 36.5787 34.1547 36.7163C32.7377 36.7915 31.1982 35.7794 31.0277 34.388C30.8723 33.1197 30.9465 31.4147 30.946 30.1201L30.9437 22.166L30.9436 11.8279C30.9439 10.0154 30.9097 8.14466 30.9967 6.33626C31.0196 5.86108 31.2515 5.28954 31.5483 4.9244C32.1771 4.1508 32.7971 3.90805 33.7242 3.77448Z" fill="white"/>
<path d="M169.758 28.3556C168.659 29.7889 167.669 30.7555 166.122 31.729C163.081 33.6439 159.405 34.2639 155.909 33.4526C152.406 32.6347 149.372 30.4509 147.476 27.3829C145.58 24.345 144.973 20.6718 145.789 17.1815C146.616 13.6347 148.822 10.5677 151.914 8.66435C154.596 6.99861 158.142 6.2985 161.251 6.90758C162.825 7.21607 164.111 8.62775 163.686 10.3106C163.553 10.8347 163.271 11.3084 162.874 11.6741C161.547 12.896 160.09 12.0928 158.539 12.1697C157.236 12.2452 155.97 12.6357 154.849 13.3078C153.02 14.4028 151.697 16.1812 151.17 18.2535C150.639 20.3446 150.964 22.5626 152.074 24.4104C153.174 26.249 154.958 27.571 157.032 28.0835C159.175 28.6069 161.326 28.221 163.197 27.0686C165.169 25.8464 166.502 23.8132 166.843 21.512C167.08 19.9589 167.047 18.6747 167.436 17.0629C168.268 13.5649 170.454 10.5441 173.509 8.66862C175.399 7.51299 178.956 6.28623 181.16 6.8335C181.891 7.0071 182.518 7.47067 182.901 8.11813C183.268 8.74118 183.372 9.48441 183.191 10.1845C182.618 12.4037 180.766 11.9925 179.126 12.2889C175.611 12.9238 173.483 15.5329 172.645 18.7369C173.698 18.7227 174.777 18.737 175.833 18.7394C177.641 14.2917 183.269 14.1503 185.094 18.3349C185.596 19.5044 185.616 20.8264 185.15 22.0109C184.67 23.2507 183.714 24.2443 182.497 24.7667C181.297 25.2912 179.938 25.3133 178.723 24.8284C177.208 24.2241 176.466 23.182 175.847 21.7449L172.643 21.7541C172.711 22.0707 172.798 22.3829 172.902 22.689C174.616 27.766 180.446 29.9943 185.006 26.9203C185.829 26.3653 186.614 25.4332 187.566 25.1153C188.222 24.8997 188.935 24.953 189.551 25.2637C190.319 25.658 190.741 26.2789 191 27.0804V28.3301C190.508 29.7847 189.32 30.6213 188.123 31.4587C185.337 33.4075 181.844 34.1483 178.499 33.6386C175.005 33.1058 171.863 31.2067 169.758 28.3556Z" fill="white"/>
<path d="M0 18.8472C0.720581 14.721 2.16829 11.5628 5.7126 9.07246C8.66682 7.00502 12.3174 6.20024 15.862 6.83499C19.3966 7.46113 22.5374 9.47531 24.5903 12.4324C27.7183 16.9314 26.9597 21.2121 27.0219 26.3455C27.0395 27.8061 27.0559 29.2492 27.0306 30.7472C26.9814 33.6735 23.451 34.9192 21.7188 32.538C21.0025 31.553 21.1444 29.9357 21.1501 28.7295L21.169 23.2497C21.1728 21.87 21.2536 20.2617 21.0374 18.9126C20.1554 13.4077 13.8587 10.7002 9.22772 13.7855C7.55269 14.9078 6.38765 16.6501 5.9869 18.6321C5.17092 22.7469 7.65133 26.7589 11.7377 27.7081C13.2795 28.0664 14.7058 27.6564 15.7575 29.2286C16.6455 30.556 16.2836 32.3887 14.9639 33.2713C13.7875 34.0583 12.2716 33.7903 10.9726 33.5444C5.66924 32.5546 1.42305 28.3934 0.282567 23.1014C0.186786 22.6569 0.11732 22.0267 0 21.6163V18.8472Z" fill="white"/>
<path d="M43.1092 40C41.4011 39.306 40.6873 38.6181 40.6639 36.6924C40.6371 34.4844 40.6489 32.2753 40.6492 30.0672L40.6553 17.7044L40.6535 8.94985C40.645 7.2244 40.6259 5.48974 40.648 3.76799C40.6702 2.55138 41.276 1.20711 42.4398 0.714755C43.3544 0.327713 44.7042 0.544377 45.4599 1.20059C46.3148 1.94268 46.503 2.67061 46.5151 3.74133C46.5365 5.62679 46.5279 7.50697 46.5283 9.39054L46.5309 20.0615L46.5305 30.9121C46.53 32.8421 46.5388 34.7735 46.5159 36.7033C46.5099 37.199 46.4989 37.6644 46.3051 38.1261C45.9049 39.08 44.9985 39.757 44.0058 40H43.1092Z" fill="white"/>
<path d="M71.1921 0H71.9968C73.534 0.481533 74.2778 1.32074 74.2997 2.96323C74.3238 4.77219 74.3157 6.57905 74.315 8.38805L74.3089 18.4523L74.3055 25.9737C74.3137 27.4286 74.2904 29.3457 74.3101 30.7578C74.3684 34.9284 68.9559 34.4453 68.9068 31.2935C68.82 25.7301 68.8699 20.1106 68.8683 14.5327L68.8645 6.93844C68.8645 5.50572 68.8334 4.05687 68.899 2.62657C68.9681 1.12203 69.9087 0.447295 71.1921 0Z" fill="white"/>
</g>
<defs>
<clipPath id="clip0_210_163">
<rect width="191" height="40" fill="white"/>
</clipPath>
</defs>
</svg>
