<svg width="286" height="40" viewBox="0 0 286 40" fill="none" xmlns="http://www.w3.org/2000/svg">
<g clip-path="url(#clip0_187_29)">
<path d="M0 34.4375V40L8.3521 34.4375L4.16979 31.6625L0 34.4375Z" fill="white"/>
<path d="M0 13.3375L8.3521 18.8875L18.3696 12.225L14.1873 9.45L19.6218 5.8375L31.3047 13.6125L12.1087 26.3875L16.2785 29.1625L40.0701 13.3375L20.035 0L0 13.3375Z" fill="white"/>
<path d="M117.406 30.6375C115.34 30.6375 114.839 29.5375 114.751 24.625C114.751 23.9 114.739 23.1875 114.739 22.4625C114.739 15.475 115.277 14.3 117.306 14.3C119.334 14.3 119.434 15.4125 119.434 18.3625H124.894C125.094 13.5875 122.439 10.9625 117.18 10.9625C109.342 10.9625 109.116 15.9375 109.116 22.4625C109.116 28.9875 109.116 23.925 109.116 24.625C109.179 30.075 109.868 33.9625 117.418 33.9625C124.969 33.9625 125.069 32.05 125.069 26.1H119.572C119.509 27.85 119.472 30.625 117.418 30.625L117.406 30.6375Z" fill="white"/>
<path d="M85.5992 24.625L81.6548 11.5H74.9932L70.9611 24.625L68.2939 33.3125H73.7911L75.1685 28.475H81.0663L82.4061 33.3125H88.2288L85.6117 24.625H85.5992ZM75.9573 25.1375L76.07 24.6375L77.9608 16.2125L80.052 24.6375L80.1772 25.1375H75.9573Z" fill="white"/>
<path d="M21.7004 27.775L25.8827 30.55L20.4482 34.1625L8.76532 26.3875L27.9614 13.6125L23.7916 10.8375L0 26.6625L20.035 40L40.0701 26.6625L31.718 21.1125L21.7004 27.775Z" fill="white"/>
<path d="M40.0699 5.5625V0L31.7178 5.5625L35.9001 8.3375L40.0699 5.5625Z" fill="white"/>
<path d="M279.501 30.025V24.625V11.5125H273.941V24.625V33.325H286V30.025H279.501Z" fill="white"/>
<path d="M157.387 29.9875H155.271V24.625H149.736V33.3125H158.038C165.051 33.3125 166.052 28.325 166.165 24.625H160.53C160.367 28.4625 159.654 29.9875 157.387 29.9875Z" fill="white"/>
<path d="M254.195 24.625C255.885 25.425 257.2 26.2375 257.2 27.525C257.2 28.8125 256.411 30 254.783 30H247.27L245.655 24.6125L241.71 11.4875H235.036L230.967 24.6125L228.875 31.3375L225.833 24.6125L225.019 22.8C227.849 22.275 228.976 20.475 228.988 17.1875C228.988 13.475 226.784 11.475 223.328 11.475H212.897V24.6V33.2875H218.595V24.6V14.825H220.486C222.089 14.825 223.491 15.9875 223.491 18.1375C223.491 20.2875 222.577 21.45 221.112 21.35L219.522 21.375L220.924 24.6L224.706 33.2875H233.822L235.199 28.45H241.097L242.437 33.2875H255.685C259.341 33.2875 263.048 32.8 263.048 27.15C263.06 26.2625 262.86 25.3875 262.447 24.6H254.195V24.625ZM236.013 25.15L236.126 24.6375L238.029 16.225L240.108 24.6375L240.233 25.15H236.013Z" fill="white"/>
<path d="M102.129 11.5125V24.625V25.6125L101.716 24.625L96.2184 11.5125H89.4941V24.625V24.6375V33.325H94.2149V24.6375V24.625V18.775L96.6692 24.6375L100.301 33.325H106.849V24.625V11.5125H102.129Z" fill="white"/>
<path d="M135.186 10.975C126.684 10.975 126.684 16.5875 126.684 22.475C126.684 28.3625 126.684 23.925 126.696 24.6375C126.809 29.625 127.748 33.9625 135.186 33.9625C142.624 33.9625 143.563 29.6125 143.676 24.6375H137.978C137.866 28.8 137.34 30.6375 135.186 30.6375C133.032 30.6375 132.506 28.8 132.394 24.625C132.381 23.9625 132.369 23.25 132.369 22.4625C132.369 16.7625 132.694 14.3 135.186 14.3C137.678 14.3 138.003 16.7625 138.003 22.4625C138.003 28.1625 138.003 23.9625 137.978 24.625H143.676C143.688 23.925 143.688 23.1875 143.688 22.4625C143.688 16.575 143.688 10.9625 135.186 10.9625V10.975Z" fill="white"/>
<path d="M158.251 11.4375H149.736V24.625H155.271V14.8375H157.537C160.568 14.8375 160.568 18.3875 160.568 22.4125C160.568 26.4375 160.555 23.95 160.53 24.625H166.165C166.203 23.7375 166.165 22.9125 166.165 22.2625C166.165 15.4375 164.913 11.4375 158.226 11.4375H158.251Z" fill="white"/>
<path d="M254.194 24.625H262.433C260.342 20.75 253.568 20.675 253.568 17.175C253.568 13.675 254.495 14.85 256.047 14.85H261.119V11.4875H253.994C248.146 11.4875 246.693 14.125 246.693 17.5375C246.693 20.95 251.076 23.1625 254.181 24.625H254.194Z" fill="white"/>
<path d="M270.673 11.5125H265.113V24.625V33.325H270.686V24.625H270.673V11.5125Z" fill="white"/>
<path d="M68.0439 24.625C67.6933 21.8625 66.3033 19.975 62.6094 19.5125C65.9652 18.85 67.6432 16.6375 67.6432 13.575C67.6432 7.88749 63.7614 6.67499 59.0532 6.67499H48.084V24.6375H54.8082V21.7L56.1481 21.6625H57.0121C59.8796 21.6625 61.0191 22.7625 61.257 24.6375C61.2946 24.9 61.3071 25.175 61.3071 25.4625C61.3071 29.1875 58.2142 29.225 56.8368 29.225H54.8082V24.6375H48.084V33.325H59.0031C61.6202 33.325 68.1315 33.025 68.1315 26.275C68.1315 19.525 68.1065 25.15 68.0314 24.6375L68.0439 24.625ZM57.5631 17.5625H55.2966L54.7957 17.5875V10.775H57.2124C59.4038 10.775 60.9565 12.2125 60.9565 14.175C60.9565 16.1375 58.978 17.575 57.5631 17.575V17.5625Z" fill="white"/>
<path d="M210.981 24.6375C210.631 21.875 209.228 19.9875 205.547 19.525C208.903 18.8625 210.581 16.65 210.581 13.5875C210.581 7.9 206.699 6.6875 201.991 6.6875H191.021V24.6375V33.3375H201.953C204.57 33.3375 211.082 33.0375 211.082 26.2875C211.082 19.5375 211.057 25.1625 210.994 24.65L210.981 24.6375ZM197.758 10.8125H201.014C202.792 10.8125 204.057 12.25 204.057 14.2125C204.057 16.175 202.441 17.6125 201.289 17.6125H199.449L197.758 17.6375V10.825V10.8125ZM200.688 29.2625H197.746V24.625V21.7375L199.436 21.7H200.814C203.13 21.7 204.057 22.7875 204.27 24.625C204.295 24.9 204.32 25.1875 204.32 25.5C204.32 29.225 201.803 29.275 200.676 29.275L200.688 29.2625Z" fill="white"/>
<path d="M176.759 11.0625C168.244 11.0625 168.244 16.65 168.244 22.5125C168.244 28.375 168.244 23.925 168.257 24.625H173.967C173.954 23.925 173.942 23.2125 173.942 22.5125C173.942 16.8375 174.267 14.375 176.759 14.375C179.251 14.375 179.564 16.825 179.564 22.5125C179.564 28.2 179.564 23.975 179.539 24.625C179.439 28.8 178.9 30.6375 176.747 30.6375C174.593 30.6375 174.054 28.8 173.954 24.625H168.257C168.369 29.6125 169.283 33.9625 176.759 33.9625C184.235 33.9625 185.136 29.6125 185.249 24.625C185.261 23.925 185.261 23.225 185.261 22.5125C185.261 16.65 185.261 11.0625 176.747 11.0625H176.759Z" fill="white"/>
</g>
<defs>
<clipPath id="clip0_187_29">
<rect width="286" height="40" fill="white"/>
</clipPath>
</defs>
</svg>
