<svg width="139" height="40" viewBox="0 0 139 40" fill="none" xmlns="http://www.w3.org/2000/svg">
<g clip-path="url(#clip0_187_75)">
<path d="M19.8728 0C8.90434 0.0658617 0 9.01207 0 19.978C0 30.944 8.97022 40 19.9826 40C30.995 40 40.0092 31.0318 40.0092 19.978C40.0092 8.92426 31.0609 0.0658617 20.1034 0H19.8728ZM6.29123 29.4292C5.05055 29.3085 4.41374 28.9901 4.24905 27.6619C4.0075 25.1372 4.0075 22.5796 4.0075 19.978C4.0075 17.3765 4.0075 14.8518 4.24905 12.3271C4.41374 11.0099 5.05055 10.6806 6.29123 10.5598C10.694 10.0768 15.4261 9.95609 19.9936 9.95609C24.5611 9.95609 29.2822 10.0768 33.6521 10.5598C34.9367 10.6806 35.5735 10.9989 35.7382 12.3271C35.9358 14.8518 35.9358 17.4094 35.9358 19.978C35.9358 22.5467 35.9358 25.1482 35.7382 27.6619C35.5735 28.9791 34.9367 29.3085 33.6521 29.4292C29.2822 29.9122 24.5611 30.0329 19.9936 30.0329C15.4261 30.0329 10.694 29.9122 6.29123 29.4292ZM11.8908 19.978C11.8908 24.4237 15.4152 28.112 19.9826 28.112C24.5501 28.112 28.0745 24.4237 28.0745 19.978C28.0745 15.5324 24.5501 11.888 19.9826 11.888C15.4152 11.888 11.8908 15.5763 11.8908 19.978ZM67.5676 3.26015V28.4083C67.5676 29.7475 68.4021 30.2964 69.6208 29.7475L71.2128 29.034C72.2229 28.573 72.684 27.9034 72.684 26.8057V4.85181C72.684 3.76509 72.2229 3.08452 71.2128 2.62349L69.6208 1.90999C69.3024 1.76729 69.0169 1.70143 68.7534 1.70143C68.0288 1.70143 67.5676 2.26125 67.5676 3.26015ZM98.3101 2.08562C97.6843 2.08562 97.3 2.45884 97.3 3.0955V28.584C97.3 29.2097 97.6733 29.5939 98.3101 29.5939H101.121C101.747 29.5939 102.131 29.2206 102.131 28.584V27.4973C103.35 28.8804 105.611 29.9341 107.84 29.9341C112.759 29.9341 116.997 25.4885 116.997 19.8573C116.997 14.2261 112.715 9.78046 107.72 9.78046C102.724 9.78046 103.734 10.6586 102.427 12.0088V3.0955C102.427 2.46981 102.054 2.08562 101.417 2.08562H98.3101ZM102.34 19.8463C102.34 16.7838 104.524 14.6872 107.127 14.6872C109.729 14.6872 111.914 16.7838 111.914 19.8463C111.914 22.9089 109.729 25.0055 107.127 25.0055C104.524 25.0055 102.34 22.9528 102.34 19.8463ZM119.094 19.8463C119.094 25.6861 123.541 29.9232 129.053 29.9232C134.564 29.9232 139 25.6861 139 19.8463C139 14.0066 134.553 9.76948 129.053 9.76948C123.552 9.76948 119.094 14.0066 119.094 19.8463ZM124.178 19.8463C124.178 16.8606 126.363 14.6872 129.053 14.6872C131.743 14.6872 133.927 16.8716 133.927 19.8463C133.927 22.8211 131.743 25.0055 129.053 25.0055C126.363 25.0055 124.178 22.8211 124.178 19.8463ZM75.0446 19.8463C75.0446 25.6861 79.4913 29.9232 85.003 29.9232C90.5147 29.9232 94.9504 25.6861 94.9504 19.8463C94.9504 14.0066 90.5037 9.76948 85.003 9.76948C79.5023 9.76948 75.0446 14.0066 75.0446 19.8463ZM80.1281 19.8463C80.1281 16.8606 82.313 14.6872 85.003 14.6872C87.693 14.6872 89.8779 16.8716 89.8779 19.8463C89.8779 22.8211 87.693 25.0055 85.003 25.0055C82.313 25.0055 80.1281 22.8211 80.1281 19.8463ZM45.2244 19.8463C45.2244 25.5543 49.3856 29.506 54.6338 29.506C59.882 29.506 58.795 28.4193 59.8381 27.2777C59.7942 31.2624 57.6971 33.0735 54.0848 33.0735C50.4726 33.0735 50.3518 32.4808 48.2438 31.1416C47.6948 30.7684 47.069 30.8891 46.7725 31.4819L45.5099 33.9627C45.2134 34.5554 45.3013 35.0933 45.8832 35.4775C48.4853 37.157 51.5486 37.9912 54.1946 37.9912C61.1227 37.9912 64.9435 34.2591 64.9435 25.6422V11.1087C64.9435 10.483 64.5702 10.0988 63.9334 10.0988H61.0788C60.4529 10.0988 60.0686 10.472 60.0686 11.1087V12.1954C58.9597 10.8123 56.8626 9.76948 54.7546 9.76948C49.6382 9.76948 45.2244 14.1383 45.2244 19.8463ZM50.2201 19.8024C50.2201 16.6959 52.4489 14.6432 55.0949 14.6432C57.741 14.6432 59.9259 16.6959 59.9259 19.8024C59.9259 22.9089 57.741 24.9616 55.0949 24.9616C52.4489 24.9616 50.2201 22.865 50.2201 19.8024Z" fill="white"/>
</g>
<defs>
<clipPath id="clip0_187_75">
<rect width="139" height="40" fill="white"/>
</clipPath>
</defs>
</svg>
