<svg width="133" height="32" viewBox="0 0 133 32" fill="none" xmlns="http://www.w3.org/2000/svg">
<g clip-path="url(#clip0_187_56)">
<path d="M101.626 13.0057H95.613V24.8457C95.613 28.7086 99.7241 32 104.803 32C109.882 32 114.323 28.6629 114.323 24.8457V13.0057H108.311V23.68C108.311 25.44 106.819 26.8686 104.985 26.8686C103.152 26.8686 101.626 25.44 101.626 23.6457V13.0057ZM6.26306 6.49143V31.0743H0.0224609V1.42857H11.2624C16.1592 1.42857 20.145 5.40571 20.145 10.2286C20.145 15.0514 17.2752 17.7943 13.3919 18.6971L22.0582 31.0629H14.6332L8.39261 21.36V14.2743H9.85027C12.162 14.2743 14.0297 12.5486 14.0297 10.4114C14.0297 8.27429 12.2759 6.48 9.96415 6.48H6.26306V6.49143ZM63.647 31.0743V0H57.748V14.6514C56.1765 13.12 54.2064 12.2514 51.9288 12.2514C47.0775 12.2514 43.1145 16.56 43.1145 21.92C43.1145 27.28 47.0775 31.5886 51.9288 31.5886C56.7801 31.5886 56.4043 30.6857 57.748 29.04V31.0629H63.647V31.0743ZM53.6028 26.5371C51.2113 26.5371 49.2754 24.4 49.2754 21.7829C49.2754 19.1657 51.2113 17.0286 53.6028 17.0286C55.9943 17.0286 57.9302 19.1657 57.9302 21.7829C57.8961 24.4114 55.9487 26.5371 53.6028 26.5371ZM88.4386 14.96C90.0443 13.4629 91.0578 11.44 91.0578 9.22286C91.0578 7.00571 90.272 5.36 88.9283 3.89714C87.5048 2.36571 85.045 1.42857 81.6855 1.42857H71.6413V31.0629H84.635C89.6002 30.9829 93.6315 27.2 93.6315 22.56C93.5973 19.1886 92.4016 16.7886 88.4386 14.9486M83.4393 25.9314H77.8022V6.75429H81.7652C83.4848 6.75429 84.9425 8.06857 84.9425 9.82857C84.9425 11.5886 83.4848 13.0171 81.7652 13.0171H79.6699V18.3771H83.519C85.6144 18.3771 87.1745 20.1029 87.1745 22.1943C87.0948 24.2971 85.7169 25.8286 83.4393 25.9429" fill="white"/>
<path d="M27.2859 19.7143C27.2859 17.7257 28.8916 16.1143 30.8731 16.1143C32.8546 16.1143 34.4603 17.7257 34.4603 19.7143H27.2859ZM40.2796 23.0857C40.3137 22.6743 40.3593 22.2629 40.3593 21.8514C40.439 15.44 36.2482 11.9543 30.8731 11.9543C25.498 11.9543 21.125 16.3771 21.125 21.8514C21.125 27.3257 25.498 31.7486 30.8731 31.7486C36.2482 31.7486 38.1956 29.8743 39.8354 26.9486L35.0525 24.7429C34.4603 26.0571 33.0368 26.9943 31.3514 26.9943C29.666 26.9943 27.32 25.3029 27.32 23.0971H40.2796M117.08 0H122.979V31.0629H117.08V0ZM127.124 0H133.023V31.0629H127.124V0Z" fill="white"/>
</g>
<defs>
<clipPath id="clip0_187_56">
<rect width="133" height="32" fill="white"/>
</clipPath>
</defs>
</svg>
