<svg width="132" height="40" viewBox="0 0 132 40" fill="none" xmlns="http://www.w3.org/2000/svg">
<g clip-path="url(#clip0_187_49)">
<path fill-rule="evenodd" clip-rule="evenodd" d="M81.9419 31.2442C74.2833 36.9302 63.1541 39.9651 53.5752 39.9651C43.9962 39.9651 28.066 34.9767 18.9266 26.6744C18.2094 26.0232 18.8456 25.1279 19.7133 25.6395C29.5815 31.407 41.775 34.8837 54.3734 34.8837C66.9718 34.8837 72.2241 33.1163 80.8197 29.4535C82.1154 28.8953 83.2029 30.3023 81.9303 31.2558M85.1349 27.5814C84.1631 26.3256 78.6679 26.9884 76.1806 27.2791C75.4286 27.3721 75.313 26.7093 75.9955 26.2442C80.3801 23.1395 87.5759 24.0349 88.4088 25.0814C89.2533 26.1163 88.189 33.3721 84.0705 36.8372C83.4342 37.3721 82.8327 37.0814 83.1219 36.3837C84.0474 34.0581 86.1182 28.8605 85.1349 27.593" fill="white"/>
<path fill-rule="evenodd" clip-rule="evenodd" d="M76.3537 4.34884V1.32558C76.3537 0.918607 76.6661 0.56977 77.071 0.558142C77.0825 0.558142 77.0941 0.558142 77.1057 0.558142H90.537C90.9651 0.558142 91.3122 0.872095 91.3122 1.32558V3.90698C91.3122 4.33721 90.9419 4.90698 90.3057 5.80233L83.3528 15.7907C85.9442 15.7326 88.6629 16.1163 91.0114 17.4419C91.5435 17.7442 91.6708 18.1861 91.7286 18.6163V21.8372C91.7286 22.2791 91.2427 22.7907 90.7337 22.5233C86.6037 20.3488 81.1085 20.1047 76.5504 22.5465C76.0876 22.8023 75.6017 22.2907 75.6017 21.8488V18.7907C75.6017 18.3023 75.6017 17.4651 76.0992 16.7209L84.1626 5.10465H77.1635C76.7355 5.10465 76.3884 4.80233 76.3884 4.34884M27.3598 23.1512H23.276C22.8827 23.1163 22.5819 22.8256 22.5472 22.4535V1.38372C22.5472 0.965118 22.8943 0.627909 23.3339 0.627909H27.14C27.5334 0.639537 27.8573 0.95349 27.8804 1.32558V4.0814H27.9614C28.9563 1.41861 30.8189 0.174421 33.3409 0.174421C35.8629 0.174421 37.4941 1.41861 38.6394 4.0814C39.6343 1.41861 41.8787 0.174421 44.285 0.174421C46.6913 0.174421 47.8713 0.883723 49.0166 2.47675C50.3123 4.24419 50.0463 6.82558 50.0463 9.0814V22.3837C50.0463 22.8023 49.6876 23.1512 49.248 23.1512H45.1526C44.7593 23.1163 44.4122 22.7907 44.4122 22.3837V11.1977C44.4122 10.314 44.4932 8.09303 44.2966 7.24419C43.9958 5.82558 43.0818 5.43023 41.8902 5.43023C40.6987 5.43023 39.8657 6.09303 39.4492 7.16279C39.0328 8.23256 39.0675 10 39.0675 11.1977V22.3721C39.0675 22.7907 38.7204 23.1395 38.2808 23.1395H34.1854C33.769 23.1047 33.445 22.7791 33.445 22.3721V11.1977C33.445 8.84884 33.8268 5.38372 30.923 5.38372C28.0193 5.38372 28.1002 8.75582 28.1002 11.1977V22.3721C28.1002 22.7907 27.7532 23.1395 27.3136 23.1395M102.869 0.197677C108.931 0.197677 112.217 5.43024 112.217 12.0814C112.217 18.7326 108.596 23.6047 102.869 23.6047C97.1428 23.6047 93.6722 18.3721 93.6722 11.8488C93.6722 5.32558 96.9577 0.174421 102.869 0.174421M102.904 4.48837C99.8962 4.48837 99.6995 8.61628 99.6995 11.186C99.6995 13.7558 99.6648 19.2558 102.869 19.2558C106.074 19.2558 106.19 14.8256 106.19 12.1163C106.19 9.40698 106.109 8.2093 105.588 6.52326C105.125 5.05814 104.211 4.48837 102.916 4.48837M120.084 23.1512H116.012C115.618 23.1163 115.271 22.7907 115.271 22.3837V1.31396C115.306 0.930235 115.641 0.627909 116.058 0.627909H119.841C120.199 0.639537 120.489 0.883723 120.57 1.22093V4.44186H120.651C121.796 1.55814 123.392 0.186049 126.215 0.186049C129.038 0.186049 129.836 0.848839 130.982 2.67442C132.034 4.36047 132.034 7.19768 132.034 9.23256V22.5C131.988 22.8721 131.653 23.1628 131.248 23.1628H127.152C126.782 23.1279 126.47 22.8605 126.423 22.5V11.0581C126.423 8.75582 126.69 5.38372 123.867 5.38372C121.044 5.38372 121.958 6.05814 121.495 7.06977C120.917 8.36047 120.847 9.63954 120.847 11.0581V22.407C120.847 22.8256 120.489 23.1744 120.049 23.1744M65.641 13.0814C65.641 14.686 65.6757 16 64.8774 17.4419C64.2296 18.593 63.2 19.3023 62.0547 19.3023C60.9094 19.3023 59.5674 18.1047 59.5674 16.3256C59.5674 12.8256 62.6909 12.186 65.641 12.186V13.0698M69.7595 23.0814C69.4934 23.3256 69.1001 23.3372 68.7993 23.1744C67.4457 22.0465 67.1912 21.5116 66.4508 20.4419C64.2065 22.7442 62.6215 23.4302 59.7178 23.4302C56.814 23.4302 53.5979 21.3023 53.5979 17.0349C53.5979 12.7674 55.391 11.4302 57.9593 10.3256C60.1805 9.34884 63.2694 9.17442 65.641 8.89535V8.36047C65.641 7.38372 65.722 6.23256 65.1435 5.38372C64.6461 4.62791 63.6974 4.31396 62.8529 4.31396C61.2911 4.31396 59.9144 5.11628 59.5674 6.77907C59.498 7.15117 59.2319 7.51163 58.8501 7.53489L54.8936 7.10465C54.5581 7.02326 54.1879 6.75582 54.292 6.24419C55.1944 1.41861 59.5442 -0.0348816 63.4198 -0.0348816C67.2953 -0.0348816 68.001 0.500002 69.5744 2.01163C71.5642 3.8721 71.3675 6.3721 71.3675 9.0814V15.4767C71.3675 17.3954 72.1542 18.2442 72.9062 19.2791C73.1607 19.6512 73.2186 20.093 72.8946 20.3721L69.771 23.1163M12.089 13.093C12.089 14.6977 12.1237 16.0116 11.3255 17.4535C10.6776 18.6047 9.648 19.314 8.50269 19.314C7.35738 19.314 6.0154 18.1163 6.0154 16.3372C6.0154 12.8372 9.13898 12.1977 12.089 12.1977V13.0814M16.1959 23.093C15.9299 23.3372 15.5365 23.3488 15.2357 23.186C13.8822 22.0581 13.6508 21.5233 12.8873 20.4535C10.6429 22.7558 9.05799 23.4419 6.15422 23.4419C2.71829 23.4419 0.0458984 21.314 0.0458984 17.0465C0.0458984 12.7791 1.83906 11.4419 4.40734 10.3372C6.62855 9.36047 9.71741 9.18605 12.089 8.90698V8.3721C12.089 7.39535 12.17 6.24419 11.5916 5.39535C11.0941 4.63954 10.1339 4.32558 9.30094 4.32558C7.73915 4.32558 6.35089 5.12791 6.00383 6.7907C5.93442 7.16279 5.66833 7.52326 5.29813 7.54651L1.33004 7.11628C0.99454 7.03489 0.635907 6.76744 0.728458 6.25582C1.63082 1.43023 5.96912 -0.0232537 9.85624 -0.0232537C13.7434 -0.0232537 14.4375 0.51163 16.0108 2.02326C18.0007 3.88372 17.804 6.38372 17.804 9.09303V15.4884C17.804 17.407 18.5907 18.2558 19.3427 19.2907C19.6087 19.6628 19.6666 20.1047 19.3311 20.3837L16.2191 23.1047H16.2075" fill="white"/>
</g>
<defs>
<clipPath id="clip0_187_49">
<rect width="132" height="40" fill="white"/>
</clipPath>
</defs>
</svg>
