<svg width="141" height="56" viewBox="0 0 141 56" fill="none" xmlns="http://www.w3.org/2000/svg">
<g clip-path="url(#clip0_187_52)">
<path d="M55.5263 22.5167C54.9307 22.435 54.3 22.4 53.6108 22.4C52.9217 22.4 53.2838 22.4 53.1203 22.4C53.3539 23.4733 53.5291 24.5467 53.6225 25.6433C54.6854 25.6433 55.4446 25.7717 55.9935 26.0633C55.9118 24.85 55.7483 23.6717 55.5263 22.505V22.5167ZM49.6747 42.3733C49.2309 43.085 48.7637 43.7733 48.2731 44.4267H49.628C48.2498 46.375 47.0934 48.1133 45.8554 49.6067C47.6891 48.09 49.336 46.3517 50.7259 44.4267C51.4617 43.4117 52.1392 42.3383 52.7348 41.2183H51.6369C50.6792 41.23 50.2353 41.4167 49.663 42.3733H49.6747ZM52.256 16.1H53.4123C48.9389 6.59167 39.2562 0 28.0318 0C16.8074 0 27.8333 0 27.7281 0C27.1091 0 26.4901 0.035 25.871 0.0816667C25.871 0.0816667 25.871 0.0816667 25.8593 0.0816667C11.5047 1.17833 0.175199 13.0783 0 27.65C0.116799 20.475 3.80765 13.93 8.81834 9.01833C4.05293 13.895 1.09791 20.615 1.09791 28.0233C1.09791 42.84 12.9063 54.8917 27.4245 54.8917C41.9426 54.8917 36.3362 53.7017 40.1556 51.5433C43.2858 49.7817 46.0539 47.3667 48.2731 44.4267H47.7826C47.292 45.0217 46.7547 45.5933 46.2058 46.1533C43.8464 48.51 41.1016 50.365 38.0415 51.66C34.8762 53.0017 31.5124 53.6783 28.0435 53.6783C24.5746 53.6783 21.2107 53.0017 18.0455 51.66C14.9853 50.365 12.2406 48.5217 9.88121 46.1533C7.52187 43.785 5.66476 41.055 4.36829 37.9983C3.0251 34.8367 2.34766 31.4767 2.34766 28.0117C2.34766 24.5467 3.0251 21.1867 4.36829 18.025C5.66476 14.9683 7.51019 12.2267 9.88121 9.87C12.2522 7.51333 14.9853 5.65833 18.0455 4.36333C21.2107 3.02167 24.5746 2.345 28.0435 2.345C31.5124 2.345 34.8762 3.02167 38.0415 4.36333C41.1016 5.65833 43.8464 7.50167 46.2058 9.87C48.5651 12.2383 49.6046 13.825 50.8077 16.1233H51.0413M28.0318 56C28.3472 56 28.6625 56 28.9779 55.9883C28.6041 55.9883 28.2187 56 27.8216 56C27.8917 56 27.9617 56 28.0435 56H28.0318ZM53.6108 34.8833C53.3188 34.8833 53.0502 34.8833 52.8049 34.8483C52.5129 35.9217 52.1508 36.96 51.707 37.9983C51.707 38.0217 51.6837 38.045 51.672 38.08C52.0808 38.115 52.5129 38.1383 52.9801 38.1383C53.4473 38.1383 53.8328 38.1383 54.1715 38.1383C54.6036 37.0417 54.954 35.91 55.246 34.755C54.7905 34.86 54.2532 34.9067 53.6108 34.9067V34.8833Z" fill="white"/>
<path fill-rule="evenodd" clip-rule="evenodd" d="M131.364 23.7533V23.7767C131.376 23.7767 127.965 23.7767 127.965 23.7767L127.685 25.025H131.376C134.763 25.025 135.884 25.935 135.884 28.6533V29.96C135.055 29.0967 133.572 28.665 131.469 28.665C128.129 28.665 126.505 30.1117 126.505 33.0867V33.2967C126.505 36.085 128.094 37.4967 131.259 37.4967H132.1C135.441 37.4967 137.134 36.085 137.134 33.2967V28.63C137.134 25.1767 135.476 23.7533 131.364 23.7533ZM132.077 36.2833H131.551C128.9 36.2833 127.767 35.3967 127.767 33.32V33.11C127.767 30.8583 128.841 29.9017 131.364 29.9017H131.575C134.588 29.9017 135.873 30.835 135.873 33.005V33.5067C135.873 35.5017 134.798 36.2833 132.065 36.2833H132.077ZM38.7425 32.2817V26.215C38.7425 26.215 43.5429 26.215 43.8116 26.215L44.489 22.8783H38.7191V18.3283L34.6779 18.9467V32.55C34.6779 37.2517 36.4883 38.6517 41.4172 38.6517H43.578L44.2554 35.3383H41.7209C39.4783 35.3383 38.7425 34.7783 38.7425 32.27V32.2817ZM24.5163 22.3883C19.5524 22.3883 21.2226 22.715 20.0663 23.6367V16.1L15.9783 16.7533V31.3833C15.9783 36.8083 18.4311 39.06 23.7572 39.06C29.0832 39.06 31.7579 36.8667 31.7579 31.4067V30.0067C31.7579 24.885 29.492 22.3883 24.528 22.3883H24.5163ZM27.6933 31.4067C27.6933 34.685 26.7005 35.8167 23.8389 35.8167C20.9773 35.8167 19.9845 34.685 19.9845 31.3833V29.6917C19.9845 26.6817 20.9773 25.6667 23.8856 25.6667C26.6888 25.6667 27.6816 26.7983 27.6816 30.1583V31.4067H27.6933ZM8.90029 8.93667C9.81133 8.05 10.7691 7.21 11.7502 6.42833C10.7457 7.19833 9.78797 8.03833 8.90029 8.93667ZM52.2562 16.1C47.7711 6.38167 38.2403 0.116667 27.7283 0C27.6232 0 27.5181 0 27.4247 0C26.9224 0 26.3968 0.0233333 25.8712 0.0816667C25.8712 0.0816667 25.8712 0.0816667 25.8595 0.0816667C21.4445 0.536667 16.2937 2.84667 11.7502 6.42833C16.1302 3.10333 21.5613 1.13167 27.4247 1.13167C41.7092 1.13167 46.7316 6.97667 51.0298 16.1M55.5265 22.5167C54.9309 22.435 54.3001 22.4 53.611 22.4C52.9219 22.4 53.284 22.4 53.1205 22.4C48.1331 22.54 45.8322 24.85 45.8322 29.925V30.73C45.8322 35.245 47.5842 37.6483 51.6722 38.0567C52.081 38.0917 52.5131 38.115 52.9803 38.115C53.4475 38.115 53.833 38.115 54.1717 38.115C57.699 38.0683 56.2857 37.7533 57.3252 36.9017V37.4967C57.3252 40.2967 56.1222 41.2183 53.3307 41.2183H51.6488C50.6911 41.23 50.2472 41.4167 49.6749 42.3733C49.2311 43.085 48.7639 43.7733 48.2733 44.4267H53.5526C58.7152 44.4267 61.3665 42.4317 61.3665 37.345V29.6683C61.3665 25.2583 59.451 23.0183 55.5265 22.5167ZM57.3486 31.22C57.3486 33.3783 56.7763 34.3817 55.2462 34.7317C54.7907 34.8367 54.2534 34.8833 53.611 34.8833C52.9686 34.8833 53.0504 34.8833 52.8051 34.8483C50.6443 34.6383 49.8735 33.4483 49.8735 30.5317V30.03C49.8735 26.8217 50.4224 25.655 53.611 25.655C54.6739 25.655 55.4331 25.7833 55.9821 26.075C57.0916 26.6467 57.3369 27.8833 57.3369 30.065V31.22H57.3486ZM0.0585938 29.8317C0.981308 44.415 12.9065 56 27.4247 56C41.9428 56 27.6582 56 27.775 56C13.0233 55.8717 0.992987 44.3567 0.0585938 29.8317ZM139.75 18.62V37.52H141V18.62H139.75ZM106.054 32.7483V25.025H111.403L111.684 23.7767H106.054V20.2183L104.757 20.4633V32.69C104.757 36.1667 106.042 37.4617 109.464 37.4617H111.322L111.567 36.2133H109.476C106.883 36.2133 106.054 35.3733 106.054 32.7483ZM123.048 23.7767V32.095C123.048 35.315 122.055 36.3533 118.984 36.3533C115.912 36.3533 114.989 35.28 114.989 32.095V23.7767H113.693V32.095C113.693 36.05 115.176 37.6017 118.972 37.6017C122.768 37.6017 124.286 36.015 124.286 32.095V23.7767H123.036H123.048ZM99.3146 36.19C95.9157 36.2133 94.5959 34.8133 94.5959 31.2083V30.0417C94.5959 26.3317 95.8339 25.025 99.3146 25.025H102.258L102.538 23.7767H99.3146C95.1565 23.7767 93.2994 25.7017 93.2994 30.03V31.185C93.2994 35.5133 95.1565 37.4383 99.3146 37.4383H102.305L102.585 36.19H99.3146ZM85.2636 23.7533V23.7767H81.8648L81.5844 25.025H85.2753C88.6274 25.025 89.7604 25.935 89.7604 28.6533V29.96C88.9311 29.0967 87.4478 28.665 85.3454 28.665C82.0049 28.665 80.3814 30.1117 80.3814 33.0867V33.2967C80.3814 36.085 81.9932 37.4967 85.1585 37.4967H85.9995C89.3166 37.4967 90.9868 36.085 90.9868 33.2967V28.63C90.9868 25.1767 89.3516 23.7533 85.2636 23.7533ZM85.9761 36.2833H85.4388C82.7758 36.2833 81.6312 35.3967 81.6312 33.32V33.11C81.6312 30.8583 82.7057 29.9017 85.2286 29.9017H85.4388C88.4522 29.9017 89.737 30.835 89.737 33.005C89.7487 33.005 89.7487 33.5067 89.7487 33.5067C89.7487 35.525 88.7209 36.2833 85.9644 36.2833H85.9761ZM72.6026 23.555H72.6143C68.6197 23.555 66.7626 25.585 66.7626 29.9017V41.65H68.0124V35.6183C68.9234 36.8317 70.617 37.5317 72.661 37.5317C76.6322 37.5317 78.3958 35.5717 78.3958 31.1967V29.855C78.3958 25.5033 76.6205 23.555 72.6026 23.555ZM77.1461 31.1967C77.1461 34.9067 75.943 36.2833 72.7077 36.2833C69.4724 36.2833 68.0825 34.7667 68.0825 31.745V29.9017C68.0825 26.2967 69.4023 24.815 72.6376 24.815C75.873 24.815 77.1461 26.2267 77.1461 29.855V31.1967Z" fill="white"/>
<path fill-rule="evenodd" clip-rule="evenodd" d="M49.628 44.4267C48.2498 46.375 47.0935 48.1133 45.8554 49.6067C41.2418 53.41 35.3785 55.7667 28.9662 55.9767C28.5925 55.9767 28.207 55.9883 27.8099 55.9883H27.7749C13.0231 55.8717 0.992832 44.3567 0.0584384 29.8317C0.0584384 29.715 0.0467585 29.5983 0.0350786 29.4817C0.0350786 29.4583 0.0350786 29.435 0.0350786 29.4117C0.0350786 29.19 0.0117188 28.9683 0.0117188 28.7467C0.0117188 28.5017 0.0117188 28.2567 0.0117188 28C0.0117188 27.7433 0.0117188 27.7667 0.0117188 27.65C0.128518 20.475 3.81937 13.93 8.83006 9.01834C4.05297 13.895 1.09795 20.615 1.09795 28.0233C1.09795 42.84 12.9064 54.8917 27.4245 54.8917C41.9426 54.8917 36.3363 53.7017 40.1556 51.5433C43.2858 49.7817 46.054 47.3667 48.2731 44.4267H49.628Z" fill="white"/>
</g>
<defs>
<clipPath id="clip0_187_52">
<rect width="141" height="56" fill="white"/>
</clipPath>
</defs>
</svg>
