<svg width="141" height="32" viewBox="0 0 141 32" fill="none" xmlns="http://www.w3.org/2000/svg">
<g clip-path="url(#clip0_187_25)">
<path fill-rule="evenodd" clip-rule="evenodd" d="M43.1324 10.6171L39.4819 19.7371H44.5356L43.1552 10.5829V10.6171H43.1324ZM23.7848 31.5429L38.7632 0.651428H50.0798L56.3997 31.5429H46.4521L45.722 27.4286H36.071L33.8465 31.5429H23.7734H23.7848ZM61.1111 31.5429L65.446 0.651428H75.462L71.1271 31.5429H61.1111ZM127.744 10.5829L124.082 19.7371H129.136L127.755 10.5829H127.744ZM108.373 31.5429L123.363 0.651428H134.68L141 31.5429H131.052L130.322 27.4286H120.671L118.447 31.5429H108.373ZM86.231 17.0971H98.7795L107.381 31.3714H94.821L86.2196 17.0971H86.231Z" fill="white"/>
<path fill-rule="evenodd" clip-rule="evenodd" d="M87.5322 14.9029H100.503L111.785 0.697144H98.8144L87.5436 14.9029H87.5322ZM74.5615 31.4514H87.5322L98.803 17.0629H85.8324L74.5615 31.4514Z" fill="#D8D8D8"/>
<path fill-rule="evenodd" clip-rule="evenodd" d="M79.2381 0.525711H91.3531L99.6465 14.9143H87.5315L79.2381 0.525711ZM24.0815 1.76L23.1232 10.8457C19.4271 5.74857 10.8713 9.26857 10.1982 15.6229C9.34266 23.6914 17.5791 25.5771 22.0623 20.8229L21.0927 29.9314C19.758 30.5943 18.4461 31.0971 17.157 31.4514C15.9021 31.7943 14.613 31.9771 13.3126 32.0114C11.7041 32.0457 10.2553 31.8743 8.94339 31.5086C7.66572 31.1657 6.4679 30.5829 5.39557 29.7829C3.3764 28.2971 1.9048 26.4114 1.00358 24.1257C0.102369 21.8057 -0.194233 19.2114 0.113777 16.3086C0.364748 13.9771 0.946544 11.8514 1.88198 9.92C2.80601 7.98857 4.09509 6.24 5.7264 4.65142C7.26645 3.13143 8.9548 2 10.7686 1.22285C12.5825 0.45714 14.5674 0.0457112 16.7007 -3.12831e-06C17.9669 -0.0342888 19.2218 0.102854 20.4538 0.399997C21.6745 0.69714 22.8837 1.15428 24.0815 1.76Z" fill="white"/>
</g>
<defs>
<clipPath id="clip0_187_25">
<rect width="141" height="32" fill="white"/>
</clipPath>
</defs>
</svg>
