<svg width="159" height="32" viewBox="0 0 159 32" fill="none" xmlns="http://www.w3.org/2000/svg">
<g clip-path="url(#clip0_187_19)">
<path d="M34.6218 -0.0457153C32.5166 -0.0457153 30.4229 0.891428 28.4893 2.58286C27.1735 3.72571 25.9608 5.16571 24.8281 6.68571C23.4437 4.92571 22.1508 3.58857 20.8923 2.57143C18.5125 0.62857 16.2356 -0.0457153 13.9474 -0.0457153C10.0001 -0.0457153 6.54485 2.52571 4.16505 6.19428C1.4649 10.3429 0.0576172 15.7143 0.0576172 20.8686C0.0576172 26.0229 0.618242 26.1829 1.76237 28.08C3.15821 30.4 5.41215 31.9429 8.98185 31.9429C12.5515 31.9429 14.2792 30.5943 16.945 27.04C18.4667 25.0057 19.2447 23.7714 22.2995 18.3657L23.8212 15.68C23.9471 15.4514 24.0729 15.2343 24.1988 15.0171C24.3247 15.2114 24.4391 15.4171 24.5649 15.6229L28.8897 22.8457C30.3428 25.28 32.2306 27.9771 33.8553 29.4971C35.9605 31.4743 37.8597 31.9429 40.0107 31.9429C42.1617 31.9429 41.0519 31.8971 41.5324 31.8171C41.7269 31.7829 41.91 31.7486 42.0816 31.7029C42.7909 31.52 43.4317 31.2571 43.9923 30.9371C44.1296 30.8571 44.2669 30.7657 44.3927 30.6857C44.8504 30.3771 45.2508 30.0229 45.5941 29.6457C45.9831 29.2229 46.3149 28.7657 46.578 28.3086C46.784 27.9543 46.967 27.5886 47.1386 27.1886C47.3675 26.6629 47.562 26.1143 47.7336 25.5086C47.8137 25.2114 47.8938 24.9029 47.951 24.5829C48.1798 23.4629 48.3057 22.2057 48.3057 20.7886C48.3057 15.3257 46.9327 10.0343 44.1181 5.82857C41.521 2 38.1572 -0.0457153 34.6218 -0.0457153ZM19.668 14.4C18.1463 16.7314 15.881 20.4571 13.9703 23.1086C11.579 26.4229 10.3319 26.7543 8.9704 26.7543C7.60889 26.7543 6.88808 26.2857 6.19016 25.1657C5.66386 24.3086 5.25198 22.9029 5.25198 21.0629C5.25198 16.6057 6.52196 11.9543 8.5814 8.84571C10.0459 6.64 11.7964 5.2 13.8444 5.2C15.8924 5.2 17.9862 6.78857 19.2218 8.10286C19.8397 8.75428 20.6978 9.85143 21.7046 11.2686L19.6566 14.4114L19.668 14.4ZM39.9993 26.7543C38.8322 26.7543 37.9398 26.2971 36.6584 24.7429C35.663 23.5314 33.9582 20.9714 30.9721 15.9886L29.7364 13.92C28.8554 12.4457 28.0088 11.1314 27.2079 9.94286C27.3452 9.72571 27.4939 9.50857 27.6312 9.29143C29.8851 5.94286 31.8874 4.06857 34.3816 4.06857C36.8758 4.06857 38.775 5.58857 40.3883 8.08C42.6651 11.5886 43.6948 16.5029 43.6948 20.9257C43.6948 25.3486 42.9511 26.7429 39.9993 26.7429V26.7543Z" fill="white"/>
<path d="M106.312 8.17143C99.665 8.17143 95.1914 13.2 95.1914 20.1029C95.1914 27.0057 99.4819 31.92 106.678 31.92C113.875 31.92 113.772 30.6171 116.232 28.3543L113.623 25.1543C111.816 26.8571 109.905 27.7829 106.862 27.7829C103.818 27.7829 100.66 25.3714 100.077 21.8057H116.758V20.4571C116.758 13.12 112.857 8.16 106.312 8.16V8.17143ZM100.077 18.24C100.58 14.96 102.708 12.3086 106.232 12.3086C109.756 12.3086 111.793 14.8571 112.044 18.24H100.077Z" fill="white"/>
<path d="M154.401 8.72V11.6343C152.742 9.42858 150.282 8.18286 147.158 8.18286C140.831 8.18286 136.609 13.2571 136.609 20.0457C136.609 26.8343 140.728 31.9314 146.907 31.9314C153.085 31.9314 153.108 30.08 154.412 28.2171V31.3943H159.069V8.72H154.412H154.401ZM154.309 23.4514C153.394 25.76 151.117 27.6229 147.913 27.6229C144.71 27.6229 141.449 24.6057 141.449 20.0343C141.449 15.4629 144.046 12.4686 148.108 12.4686C152.17 12.4686 153.359 14.24 154.309 16.64V23.44V23.4514Z" fill="white"/>
<path d="M74.6892 19.4743L64.4378 0.959991H58.4082V31.3829H63.328V8.06856L72.3094 24.2171H76.9203L85.9131 8.06856V31.3829H90.8329V0.959991H84.9292L74.6892 19.4743Z" fill="white"/>
<path d="M127.467 22.9371V12.7429H134.344V8.72H127.467V2.06857H122.719V8.72H118.188V12.7429H122.719V23.4971C122.719 29.0857 125.282 31.8857 130.396 31.8857C135.511 31.8857 133.016 31.7143 134.332 31.3486V27.3714C133.268 27.5429 132.559 27.6571 131.312 27.6571C128.577 27.6571 127.456 26.4229 127.456 22.9371H127.467Z" fill="white"/>
</g>
<defs>
<clipPath id="clip0_187_19">
<rect width="159" height="32" fill="white"/>
</clipPath>
</defs>
</svg>
